<?xml version="1.0" standalone="no"?>
<!DOCTYPE svg PUBLIC "-//W3C//DTD SVG 20010904//EN"
 "http://www.w3.org/TR/2001/REC-SVG-20010904/DTD/svg10.dtd">
<svg version="1.0" xmlns="http://www.w3.org/2000/svg"
 width="512.000000pt" height="512.000000pt" viewBox="0 0 512.000000 512.000000"
 preserveAspectRatio="xMidYMid meet">
<metadata>
Created by potrace 1.14, written by Peter Selinger 2001-2017
</metadata>
<g transform="translate(0.000000,512.000000) scale(0.100000,-0.100000)"
fill="#000000" stroke="none">
<path d="M2370 5114 c-244 -22 -467 -70 -674 -145 -59 -21 -85 -36 -89 -50 -3
-10 -11 -19 -17 -19 -9 0 -9 4 1 17 12 14 12 16 -1 11 -8 -2 -21 -17 -28 -31
-7 -15 -19 -27 -26 -27 -7 0 -29 -13 -47 -30 -19 -16 -42 -30 -52 -30 -10 0
-16 -4 -13 -8 3 -5 -11 -24 -32 -43 -25 -23 -29 -25 -12 -6 13 15 25 35 26 43
2 9 15 30 31 46 l28 30 -61 -30 c-33 -17 -66 -37 -73 -46 -7 -9 -18 -13 -24
-9 -6 4 -7 1 -2 -7 5 -8 2 -17 -7 -24 -8 -6 -16 -15 -16 -20 -1 -5 -15 -11
-31 -12 -49 -6 -55 -8 -72 -26 -9 -10 -20 -14 -24 -10 -5 4 -5 2 -1 -5 3 -6 2
-14 -4 -18 -5 -3 -10 -16 -10 -28 -1 -21 -1 -21 -15 3 l-14 25 -1 -35 c0 -19
-4 -30 -8 -23 -4 6 -7 -12 -8 -40 -1 -29 1 -42 3 -29 3 12 9 22 14 22 6 0 7 9
4 20 -3 11 -2 20 3 20 16 0 25 -71 11 -84 -9 -8 -10 -7 -4 4 6 12 5 13 -6 3
-7 -7 -23 -13 -36 -13 -31 0 -29 -16 2 -24 21 -5 58 4 118 29 9 4 17 3 17 -2
0 -5 -17 -15 -37 -22 -21 -8 -50 -22 -65 -32 -33 -24 -37 -24 -31 1 4 16 0 20
-18 20 -28 1 -65 25 -51 34 6 3 13 -2 16 -11 6 -15 8 -15 16 -3 5 9 5 19 -2
27 -8 10 -4 18 13 33 14 11 18 19 11 20 -7 0 -10 5 -6 12 4 7 3 8 -4 4 -7 -4
-12 -12 -12 -17 0 -19 -31 -41 -50 -36 -21 5 -27 -7 -9 -19 6 -3 8 -18 5 -33
-5 -17 -4 -21 2 -12 8 11 11 11 18 0 4 -7 3 -14 -4 -17 -22 -7 -12 -22 14 -22
14 0 23 -4 19 -10 -4 -6 -10 -8 -15 -5 -4 3 -14 -3 -21 -13 -13 -15 -12 -16 4
-3 21 17 21 12 2 -25 -8 -16 -15 -38 -15 -50 0 -11 -9 -29 -20 -39 -11 -10
-20 -14 -20 -10 0 4 -9 0 -20 -10 -11 -10 -23 -15 -26 -12 -9 9 -36 -21 -29
-33 3 -5 1 -10 -5 -10 -12 0 -40 -24 -40 -35 0 -3 11 2 25 11 13 8 29 13 35 9
6 -3 10 4 11 17 1 23 1 23 9 -2 4 -14 8 -19 9 -12 1 6 6 12 12 12 8 0 8 -5 -1
-15 -7 -8 -17 -12 -22 -9 -5 3 -12 -3 -15 -15 -3 -12 -10 -21 -15 -21 -5 0 -7
-4 -4 -8 3 -5 -5 -8 -17 -8 -18 1 -21 -4 -19 -24 1 -14 7 -27 13 -29 5 -1 2
-9 -7 -15 -9 -7 -14 -18 -10 -24 9 -15 36 -15 36 0 0 6 3 9 6 5 4 -3 13 0 21
8 19 20 57 20 50 0 -4 -8 -2 -17 4 -21 6 -3 8 -11 6 -18 -3 -6 4 -12 14 -12
11 0 19 3 19 7 0 3 11 4 25 1 18 -3 25 0 25 11 0 9 4 18 8 21 5 3 8 -10 8 -29
-1 -18 -5 -33 -11 -32 -5 1 -10 -5 -11 -13 -3 -36 -5 -40 -14 -40 -5 0 -7 8
-3 18 3 9 3 14 -1 11 -4 -4 -9 -19 -12 -35 -2 -16 -1 -24 3 -18 5 7 17 14 28
16 11 2 19 9 18 15 -1 6 7 13 17 16 20 5 20 5 0 -23 -24 -34 -24 -36 -4 -44
14 -6 15 -4 3 10 -11 13 -11 15 2 13 21 -3 49 11 49 26 0 8 8 11 23 8 18 -4
19 -3 7 6 -9 6 -10 11 -3 11 6 0 18 3 27 6 9 3 16 1 16 -6 0 -6 -5 -8 -12 -4
-7 5 -9 2 -6 -7 3 -8 -3 -23 -13 -33 -19 -19 -19 -19 -20 0 -1 14 -3 13 -8 -6
-4 -14 -17 -29 -29 -35 -13 -5 -33 -31 -45 -57 -12 -26 -27 -50 -34 -52 -7 -3
-10 1 -6 10 3 7 8 14 12 14 4 0 7 9 7 20 0 18 -2 18 -21 6 -11 -8 -19 -19 -17
-26 3 -15 -48 -81 -58 -75 -4 3 -11 -2 -14 -11 -8 -21 -7 -31 2 -19 11 15 52
36 52 27 0 -4 -6 -14 -12 -21 -11 -10 -10 -11 4 -6 10 4 18 12 18 19 0 6 9 19
20 29 19 16 20 16 20 -3 0 -10 -4 -22 -10 -25 -5 -3 -10 -14 -10 -24 0 -17
-17 -60 -41 -104 -6 -12 -7 -23 -1 -30 14 -18 4 -70 -16 -84 -9 -7 -32 -27
-51 -45 -18 -18 -30 -27 -27 -20 6 9 2 10 -17 1 -38 -17 -47 -41 -63 -169 -4
-33 -1 -50 11 -65 16 -20 16 -20 9 4 -4 15 -2 21 4 17 7 -4 7 5 0 30 -5 20 -7
38 -4 42 3 3 6 -3 6 -14 1 -16 3 -15 15 6 8 14 14 33 15 42 0 9 4 19 9 22 5 3
8 -13 7 -37 -1 -29 -6 -41 -15 -39 -7 1 -11 -3 -9 -10 3 -7 14 -14 25 -16 12
-2 24 -10 27 -18 3 -9 1 -12 -4 -9 -6 3 -10 2 -10 -4 0 -5 -3 -17 -7 -27 -5
-13 -3 -16 10 -11 9 3 19 2 22 -3 4 -6 15 -10 26 -10 11 0 18 4 15 9 -3 5 1
11 9 15 11 4 15 -2 15 -25 0 -25 -3 -30 -17 -25 -10 4 -14 4 -10 0 3 -4 -1
-14 -11 -23 -10 -9 -30 -33 -44 -54 -23 -35 -26 -46 -22 -108 3 -39 1 -75 -3
-82 -4 -7 -8 -14 -8 -17 0 -9 -146 -142 -150 -138 -9 9 20 68 31 64 6 -2 21 9
33 25 22 30 14 40 -13 14 -8 -8 -19 -15 -25 -15 -6 0 -11 -5 -11 -11 0 -5 -5
-7 -10 -4 -6 4 -29 -12 -52 -34 l-41 -41 -91 -1 c-50 -1 -188 -2 -308 -2
l-216 0 -6 -30 c-3 -16 -6 -63 -6 -103 l0 -74 2561 0 2562 0 -7 153 c-19 418
-102 740 -278 1087 -200 392 -512 741 -873 975 -130 84 -272 158 -280 145 -3
-5 -3 -10 1 -10 4 0 -1 -9 -11 -20 -20 -23 -14 -26 18 -8 21 11 21 10 7 -8
-15 -18 -14 -18 12 -1 34 21 44 22 23 1 -12 -13 -13 -19 -4 -30 7 -8 10 -16 8
-17 -2 -1 -11 -8 -20 -15 -13 -10 -22 -9 -43 1 -14 8 -23 17 -19 20 3 4 2 7
-4 7 -6 0 -16 -13 -22 -30 -9 -29 -31 -42 -31 -19 0 5 4 8 9 4 12 -7 18 21 13
58 -5 32 -31 36 -50 7 -15 -25 -5 -26 21 -2 19 16 20 16 14 0 -3 -10 -2 -20 4
-23 10 -7 -5 -25 -35 -42 -12 -7 -15 -13 -7 -17 6 -4 11 -2 11 5 0 8 4 8 15
-1 15 -13 11 -35 -6 -25 -5 4 -9 -3 -9 -14 0 -12 5 -21 11 -21 5 0 7 5 4 10
-9 15 1 12 37 -10 18 -11 26 -20 18 -20 -8 0 -24 -8 -35 -17 -16 -13 -17 -15
-2 -10 9 4 17 2 17 -3 0 -6 -7 -10 -15 -10 -8 0 -15 -4 -15 -10 0 -15 9 -12
37 10 14 11 29 17 33 15 5 -3 11 -1 15 5 12 19 23 10 22 -17 0 -16 -2 -22 -4
-15 -7 20 -23 14 -23 -9 0 -11 4 -18 8 -15 4 2 14 0 22 -6 12 -8 12 -9 -2 -4
-12 3 -18 0 -18 -9 0 -8 -8 -19 -17 -24 -16 -9 -16 -12 -3 -21 11 -7 18 -5 27
6 7 10 13 11 18 5 3 -6 1 -11 -4 -11 -6 0 -11 -7 -11 -15 0 -8 -3 -15 -7 -15
-5 0 -9 -11 -9 -25 -2 -21 1 -24 12 -14 8 7 18 8 22 4 4 -4 1 -10 -5 -12 -7
-3 -13 -11 -13 -19 0 -8 6 -11 15 -8 8 4 15 1 15 -6 0 -6 -4 -9 -9 -5 -5 3
-13 0 -17 -6 -4 -8 -9 -7 -16 2 -7 10 -8 5 -3 -15 5 -24 4 -28 -8 -18 -10 9
-16 9 -25 0 -8 -8 -9 -5 -5 11 3 12 1 21 -6 21 -6 0 -11 8 -11 18 0 9 -11 34
-25 54 -14 20 -25 42 -25 48 0 7 -10 26 -22 43 -12 17 -17 27 -10 23 7 -4 12
-3 12 2 0 5 -12 14 -26 20 -14 7 -23 16 -19 21 6 10 -61 82 -73 79 -13 -4 -53
23 -47 32 3 6 0 7 -7 5 -29 -11 -94 72 -83 105 5 15 0 29 -15 45 -12 13 -19
28 -15 34 3 6 0 11 -7 11 -17 0 -80 64 -73 73 3 4 2 5 -1 2 -4 -2 -22 8 -40
23 -90 74 -91 74 -217 93 -118 18 -467 32 -567 23z m230 -181 c-8 -4 -20 -13
-27 -22 -10 -14 -11 -13 -8 4 2 11 4 21 4 23 1 1 11 2 24 1 15 0 17 -2 7 -6z
m-1259 -196 c-10 -9 -11 -8 -5 6 3 10 9 15 12 12 3 -3 0 -11 -7 -18z m8 -51
c-7 -14 -16 -26 -20 -26 -4 0 -1 14 8 31 18 36 29 33 12 -5z m2306 -20 c0 -20
-3 -22 -17 -15 -21 11 -23 25 -5 32 21 9 22 8 22 -17z m-2475 -17 c-7 -11 -14
-18 -17 -15 -3 3 0 12 7 21 18 21 23 19 10 -6z m49 -26 c0 -25 -1 -26 -9 -8
-5 12 -9 14 -9 6 -1 -8 -4 -12 -7 -8 -9 9 3 37 16 37 5 0 10 -12 9 -27z m88
-18 c-6 -19 -12 -33 -14 -32 -6 7 9 67 17 67 5 0 3 -16 -3 -35z m-151 -17 c-3
-13 -6 -30 -7 -38 0 -8 -5 -2 -9 14 -10 31 -6 46 12 46 6 0 8 -10 4 -22z m287
0 c3 -10 1 -15 -5 -12 -5 3 -12 -3 -15 -15 -3 -12 -11 -21 -19 -21 -7 0 -12
-9 -11 -19 1 -18 3 -18 26 5 13 13 27 22 30 18 3 -3 -7 -15 -22 -26 -16 -12
-33 -30 -37 -42 -6 -15 -9 -4 -9 39 -1 44 2 56 10 45 8 -12 9 -12 7 5 -5 40
36 61 45 23z m-165 -13 c-1 -14 -8 -25 -14 -25 -9 0 -9 6 -1 25 15 31 17 31
15 0z m-101 -5 c-1 -11 -5 -20 -9 -20 -10 0 -10 4 -2 24 8 22 13 20 11 -4z
m71 -37 c-10 -2 -18 -9 -18 -15 0 -6 -3 -9 -6 -5 -10 10 6 27 24 26 15 -1 15
-2 0 -6z m-2 -51 c-17 -34 -33 -47 -65 -57 -14 -4 -36 -19 -50 -32 -14 -14
-44 -37 -66 -51 -22 -15 -50 -38 -62 -52 -16 -17 -21 -19 -17 -7 3 9 10 17 14
17 5 0 10 19 12 43 2 26 8 41 15 40 7 -2 10 4 7 12 -4 11 5 20 32 31 22 8 48
19 59 23 11 5 36 15 55 22 19 7 44 19 55 26 27 18 28 17 11 -15z m101 -14 c-3
-8 -6 -5 -6 6 -1 11 2 17 5 13 3 -3 4 -12 1 -19z m-56 -24 c-4 -16 -10 -27
-13 -24 -4 3 -16 -7 -28 -22 -12 -16 -27 -28 -33 -28 -7 0 0 11 15 25 15 13
35 38 44 54 22 36 26 35 15 -5z m2423 1 c-6 -16 -24 -21 -24 -7 0 11 11 22 21
22 5 0 6 -7 3 -15z m-2364 -14 c0 -6 -4 -13 -10 -16 -5 -3 -10 1 -10 9 0 9 5
16 10 16 6 0 10 -4 10 -9z m-100 -66 c-13 -14 -26 -23 -28 -20 -4 4 38 44 47
45 3 0 -6 -11 -19 -25z m60 -6 c-7 -11 -14 -18 -17 -15 -3 3 0 12 7 21 18 21
23 19 10 -6z m-36 -42 c-15 -26 -47 -56 -56 -51 -10 7 44 73 55 67 4 -2 4 -10
1 -16z m-90 -19 c-60 -66 -76 -79 -92 -73 -9 3 -13 3 -10 -1 7 -6 -33 -44 -46
-44 -3 0 -1 12 4 26 7 16 7 23 0 19 -6 -3 -10 -13 -10 -21 0 -8 -4 -12 -10 -9
-5 3 -7 0 -4 -8 3 -10 -5 -18 -27 -26 -18 -6 -34 -9 -37 -6 -8 8 51 64 61 58
6 -3 7 -1 4 5 -9 13 87 91 122 98 14 3 31 7 36 9 33 11 36 2 9 -27z m2460 -30
c-4 -22 -3 -29 4 -20 7 11 12 11 25 -2 8 -9 20 -16 26 -16 6 0 11 -5 11 -11 0
-6 9 -9 20 -6 11 3 20 1 20 -4 0 -5 -6 -9 -12 -9 -7 -1 -2 -10 12 -22 23 -19
23 -20 3 -14 -12 4 -24 2 -28 -4 -4 -7 2 -14 13 -17 14 -3 18 -11 15 -24 -4
-14 0 -19 13 -20 13 0 15 -2 5 -6 -24 -9 -50 -36 -45 -45 3 -5 10 -6 15 -3 5
4 9 -4 9 -16 0 -18 -2 -20 -16 -8 -28 23 -36 -10 -11 -45 16 -23 23 -27 25
-14 4 18 52 31 67 17 5 -6 2 -9 -9 -9 -11 0 -14 -4 -9 -12 8 -13 9 -18 12 -40
1 -10 3 -10 9 -1 5 8 13 9 22 3 11 -7 12 -10 2 -10 -8 0 -12 -8 -10 -17 4 -21
-28 -57 -42 -48 -6 4 -10 1 -10 -4 0 -18 28 -13 39 7 9 15 10 15 11 1 0 -17
-19 -29 -46 -29 -8 0 -14 9 -14 21 0 15 -5 19 -15 15 -8 -3 -15 0 -15 7 0 7
-5 4 -11 -6 -6 -9 -14 -15 -18 -13 -4 3 -6 -8 -3 -23 3 -19 -1 -30 -12 -34 -9
-4 -16 -2 -16 4 0 6 -8 6 -21 -2 -15 -8 -20 -18 -16 -36 4 -22 2 -24 -18 -20
-17 3 -25 -1 -28 -14 -3 -10 0 -20 7 -22 6 -2 -4 -4 -22 -5 -35 -1 -37 7 -16
62 3 9 1 16 -6 16 -6 0 -8 5 -5 11 5 6 12 4 20 -8 13 -17 14 -17 13 2 -1 11 2
38 6 60 5 29 4 36 -3 25 -9 -13 -11 -12 -11 3 0 10 -4 15 -10 12 -11 -7 -6 12
21 73 28 62 42 139 35 189 -7 52 3 163 15 163 5 0 6 -15 3 -32z m-2421 -33
c-3 -9 -8 -14 -10 -11 -3 3 -2 9 2 15 9 16 15 13 8 -4z m-14 -24 c5 -1 -40
-41 -47 -41 -2 0 1 7 8 15 9 11 9 15 1 15 -7 0 -10 4 -7 9 4 5 14 8 24 6 9 -2
19 -4 21 -4z m38 -11 c1 -11 -1 -22 -5 -24 -4 -2 -8 7 -8 20 -1 13 1 24 5 24
4 0 7 -9 8 -20z m-110 -43 c-8 -12 -18 -38 -22 -57 -10 -53 -28 -100 -37 -100
-16 0 -12 51 5 62 9 6 9 8 0 8 -14 0 0 60 17 70 6 4 10 12 8 17 -2 6 1 10 5
10 5 -1 13 7 19 18 8 13 13 15 16 7 2 -7 -3 -23 -11 -35z m79 21 c-1 -7 -12
-35 -24 -62 -12 -27 -22 -52 -22 -57 0 -5 -4 -9 -10 -9 -5 0 -10 -6 -10 -14 0
-8 -11 -28 -24 -43 l-25 -28 3 25 c4 39 16 70 27 70 6 0 7 9 4 21 -5 14 -4 19
4 15 7 -5 9 -1 5 8 -3 9 -1 16 5 16 7 0 15 8 18 18 4 9 16 25 28 34 24 21 24
21 21 6z m-315 -45 c-8 -15 -10 -15 -11 -2 0 17 10 32 18 25 2 -3 -1 -13 -7
-23z m2451 4 c3 -13 1 -32 -3 -43 -5 -13 -8 -7 -8 24 -1 46 4 55 11 19z
m-2286 -25 c-4 -11 -16 -32 -28 -47 -20 -25 -21 -26 -41 -8 -11 10 -17 12 -13
6 4 -7 3 -13 -3 -13 -17 0 -21 17 -7 29 11 9 17 7 29 -9 8 -12 17 -17 21 -12
3 5 -4 18 -14 30 -26 28 -25 32 9 32 17 0 33 5 36 11 11 16 18 3 11 -19z m151
-44 c-3 -8 -6 -5 -6 6 -1 11 2 17 5 13 3 -3 4 -12 1 -19z m1855 -100 l-3 -108
-37 0 c-49 0 -58 -7 -71 -54 -13 -50 -8 -56 15 -16 11 17 29 33 42 37 35 9
115 -2 151 -20 31 -15 33 -15 26 1 -5 13 -3 14 6 5 9 -9 7 -21 -10 -55 -27
-56 -116 -174 -137 -182 -14 -5 -44 6 -137 52 -5 2 -7 -9 -5 -24 2 -24 13 -34
63 -59 33 -16 62 -31 64 -32 8 -4 -55 -175 -92 -248 -92 -179 -168 -266 -302
-345 -49 -29 -109 -71 -132 -93 -37 -35 -48 -40 -84 -39 -94 4 -392 208 -531
363 -86 97 -125 176 -109 223 6 15 13 11 46 -31 45 -56 64 -73 82 -73 9 0 2
14 -17 38 -31 39 -77 148 -57 135 7 -4 8 0 4 11 -5 11 -3 15 4 10 17 -10 1 65
-17 83 -26 27 -12 46 15 21 11 -11 13 -10 8 4 -11 32 44 179 77 207 8 7 22 36
30 65 20 68 60 96 233 165 46 19 191 11 206 -10 9 -12 24 -15 60 -12 51 5 179
-28 208 -53 8 -8 21 -14 28 -14 6 0 21 -19 31 -42 l20 -43 0 33 c0 34 8 40 28
20 9 -9 12 -6 12 14 0 14 -7 28 -15 32 -8 3 -15 10 -15 15 0 9 17 13 120 26
32 4 62 18 98 45 29 22 57 40 62 40 6 0 11 -19 12 -42 l1 -43 4 40 c4 40 11
71 16 64 1 -2 1 -52 -1 -111z m-1864 60 c-2 -14 -13 -24 -32 -29 l-28 -8 21
23 c12 12 18 26 14 29 -3 4 1 7 11 7 12 0 16 -7 14 -22z m597 -8 c3 -5 -1 -10
-10 -10 -9 0 -13 5 -10 10 3 6 8 10 10 10 2 0 7 -4 10 -10z m1562 -167 c-2
-21 -4 -4 -4 37 0 41 2 58 4 38 2 -21 2 -55 0 -75z m473 97 c0 -5 -5 -10 -11
-10 -5 0 -7 5 -4 10 3 6 8 10 11 10 2 0 4 -4 4 -10z m-2740 -10 c0 -5 -5 -10
-11 -10 -5 0 -7 5 -4 10 3 6 8 10 11 10 2 0 4 -4 4 -10z m2800 -40 c12 -22 11
-24 -2 -13 -18 16 -32 5 -17 -14 18 -20 1 -15 -21 7 l-20 20 20 0 c12 0 20 7
20 17 0 19 3 17 20 -17z m-2679 -7 c-12 -20 -14 -14 -5 12 4 9 9 14 11 11 3
-2 0 -13 -6 -23z m1982 -17 c-4 -17 -10 -22 -24 -19 -22 6 -22 8 -9 33 14 26
38 15 33 -14z m-106 2 c-3 -8 -6 -5 -6 6 -1 11 2 17 5 13 3 -3 4 -12 1 -19z
m-1976 -35 c-16 -21 -37 -63 -46 -93 -24 -79 -26 -81 -21 -23 6 59 32 123 51
123 7 0 18 7 25 15 27 32 19 13 -9 -22z m2749 -35 c0 -13 -23 -5 -28 10 -2 7
2 10 12 6 9 -3 16 -11 16 -16z m50 2 c0 -5 -5 -10 -11 -10 -5 0 -7 5 -4 10 3
6 8 10 11 10 2 0 4 -4 4 -10z m-2674 -26 c-4 -9 -9 -15 -11 -12 -3 3 -3 13 1
22 4 9 9 15 11 12 3 -3 3 -13 -1 -22z m2574 22 c0 -3 -4 -8 -10 -11 -5 -3 -10
-1 -10 4 0 6 5 11 10 11 6 0 10 -2 10 -4z m-2702 -51 c-3 -3 -9 2 -12 12 -6
14 -5 15 5 6 7 -7 10 -15 7 -18z m2549 11 c-4 -10 -1 -13 9 -9 11 4 14 -4 14
-36 0 -32 3 -39 15 -35 11 5 13 2 9 -9 -5 -13 -9 -14 -25 -4 -10 6 -19 17 -19
24 0 18 -18 16 -22 -2 -2 -12 -6 -11 -16 5 -10 17 -10 21 0 19 7 -1 21 -1 31
0 17 1 17 2 3 17 -17 17 -20 27 -9 37 11 11 15 8 10 -7z m63 4 c0 -5 -2 -10
-4 -10 -3 0 -8 5 -11 10 -3 6 -1 10 4 10 6 0 11 -4 11 -10z m30 -10 c-6 -11
-15 -20 -20 -20 -6 0 -5 9 2 20 7 11 16 20 21 20 4 0 3 -9 -3 -20z m97 -12
c-3 -7 -5 -2 -5 12 0 14 2 19 5 13 2 -7 2 -19 0 -25z m-2501 -43 c-16 -53 -27
-69 -74 -107 -12 -10 -19 -24 -16 -32 3 -8 0 -17 -7 -22 -7 -4 -10 -3 -5 4 3
6 2 13 -4 17 -5 3 -12 -5 -16 -19 -3 -13 -12 -27 -19 -30 -21 -8 -6 24 31 66
18 20 37 46 44 57 6 12 18 21 26 21 9 0 14 7 12 18 -3 18 32 95 40 87 2 -2 -3
-29 -12 -60z m-252 16 c-5 -3 -10 -15 -12 -26 -5 -35 -8 -45 -19 -56 -8 -8 -8
3 -2 38 5 26 13 49 19 51 5 2 7 11 4 20 -4 13 -3 13 6 -2 7 -10 8 -21 4 -25z
m91 19 c3 -5 -1 -10 -10 -10 -9 0 -13 5 -10 10 3 6 8 10 10 10 2 0 7 -4 10
-10z m2282 -12 c-3 -8 -6 -5 -6 6 -1 11 2 17 5 13 3 -3 4 -12 1 -19z m258 -18
c-3 -5 -10 -10 -16 -10 -5 0 -9 5 -9 10 0 6 7 10 16 10 8 0 12 -4 9 -10z m69
-22 c-8 -15 -16 -28 -18 -28 -1 0 -3 13 -3 28 0 20 5 28 18 28 16 0 16 -3 3
-28z m50 16 c9 -24 7 -27 -9 -10 -17 17 -19 26 -6 26 5 0 12 -7 15 -16z m36 6
c0 -5 -2 -10 -4 -10 -3 0 -8 5 -11 10 -3 6 -1 10 4 10 6 0 11 -4 11 -10z
m-429 -67 c-10 -17 -10 -17 -11 2 0 11 4 31 8 45 l7 25 3 -27 c2 -15 -1 -35
-7 -45z m-2440 -4 c-6 -16 -10 -18 -10 -7 -1 22 12 55 16 42 2 -6 -1 -22 -6
-35z m2729 27 c0 -3 -4 -8 -10 -11 -5 -3 -10 -1 -10 4 0 6 5 11 10 11 6 0 10
-2 10 -4z m77 -18 c-3 -8 -6 -5 -6 6 -1 11 2 17 5 13 3 -3 4 -12 1 -19z m55 0
c-7 -7 -12 -8 -12 -2 0 6 3 14 7 17 3 4 9 5 12 2 2 -3 -1 -11 -7 -17z m-2742
2 c0 -5 -5 -10 -11 -10 -5 0 -7 5 -4 10 3 6 8 10 11 10 2 0 4 -4 4 -10z m2309
-72 c-1 -40 -1 -41 -9 -15 -8 26 -4 57 6 57 2 0 4 -19 3 -42z m-2389 23 c0 -6
-4 -13 -10 -16 -5 -3 -10 1 -10 9 0 9 5 16 10 16 6 0 10 -4 10 -9z m2545 -31
c3 -5 2 -10 -4 -10 -5 0 -13 5 -16 10 -3 6 -2 10 4 10 5 0 13 -4 16 -10z m-68
-32 c-3 -8 -6 -5 -6 6 -1 11 2 17 5 13 3 -3 4 -12 1 -19z m-2344 -19 c-4 -13
-9 -17 -15 -11 -11 11 -3 32 12 32 4 0 6 -9 3 -21z m170 6 c-3 -9 -8 -14 -10
-11 -3 3 -2 9 2 15 9 16 15 13 8 -4z m-203 -29 c0 -3 -4 -8 -10 -11 -5 -3 -10
-1 -10 4 0 6 5 11 10 11 6 0 10 -2 10 -4z m200 -27 c0 -5 -7 -12 -15 -15 -8
-4 -15 -17 -15 -30 0 -15 -6 -24 -16 -24 -9 0 -14 3 -12 8 2 4 9 23 17 44 9
23 19 34 28 31 7 -3 13 -9 13 -14z m-159 -12 c-10 -9 -11 -8 -5 6 3 10 9 15
12 12 3 -3 0 -11 -7 -18z m-201 -15 c0 -5 -7 -9 -15 -9 -8 0 -12 4 -9 9 3 4 9
8 15 8 5 0 9 -4 9 -8z m137 -24 c-3 -8 -6 -5 -6 6 -1 11 2 17 5 13 3 -3 4 -12
1 -19z m74 -11 c-13 -12 -20 -15 -15 -7 12 22 28 39 33 34 3 -3 -6 -15 -18
-27z m-134 -6 c0 -11 -5 -18 -9 -15 -4 3 -5 11 -1 19 7 21 12 19 10 -4z m-129
-45 c2 -32 -2 -45 -14 -50 -12 -5 -15 -2 -9 11 4 10 8 29 10 43 5 56 11 54 13
-4z m37 34 c3 -5 1 -10 -4 -10 -6 0 -11 5 -11 10 0 6 2 10 4 10 3 0 8 -4 11
-10z m-133 -32 c-13 -26 -17 -29 -20 -15 -2 10 2 24 8 32 22 26 29 16 12 -17z
m3208 17 c0 -8 -4 -15 -10 -15 -5 0 -10 7 -10 15 0 8 5 15 10 15 6 0 10 -7 10
-15z m-3167 -12 c-4 -11 -3 -14 6 -9 10 6 9 3 0 -13 -16 -25 -32 -6 -18 21 12
23 21 24 12 1z m357 10 c0 -16 -62 -115 -67 -109 -4 3 -14 -1 -24 -10 -12 -11
-19 -12 -24 -4 -4 6 6 23 24 39 17 15 31 31 31 34 0 4 10 18 22 32 21 25 38
32 38 18z m2360 -23 c0 -5 -8 -10 -17 -10 -15 0 -16 2 -3 10 19 12 20 12 20 0z
m490 -6 c0 -8 -5 -12 -10 -9 -6 4 -8 11 -5 16 9 14 15 11 15 -7z m-3075 -13
c3 -5 1 -12 -5 -16 -5 -3 -10 1 -10 9 0 18 6 21 15 7z m2476 -40 c18 -10 23
-10 33 5 7 9 18 14 24 10 7 -4 12 -2 12 4 0 6 12 10 28 8 18 -2 27 -9 26 -19
-1 -12 4 -15 18 -11 15 4 17 7 6 13 -11 7 -10 11 2 18 9 7 17 6 21 0 3 -6 18
-7 32 -3 20 4 27 2 27 -9 0 -8 7 -20 15 -27 11 -9 15 -9 15 -1 0 8 4 8 14 -1
8 -7 13 -15 11 -18 -1 -3 1 -14 6 -25 7 -19 8 -19 8 3 1 12 7 22 15 22 9 0 12
-7 9 -19 -4 -15 -1 -19 14 -15 13 4 19 -1 21 -15 4 -45 6 -48 24 -43 13 3 17
0 12 -11 -4 -12 -1 -14 15 -10 16 4 23 -1 31 -21 6 -17 14 -24 25 -20 17 7 20
21 4 26 -6 2 -7 11 -3 23 6 15 10 12 19 -21 7 -22 17 -38 24 -36 7 1 11 -3 8
-10 -2 -7 -14 -12 -26 -11 -16 2 -21 -3 -21 -22 0 -14 5 -25 11 -25 6 0 9 7 5
15 -4 13 5 15 59 13 61 -3 64 -2 59 17 -4 16 -3 17 5 5 8 -11 11 -12 11 -2 0
7 4 10 10 7 6 -4 2 -15 -9 -27 -11 -11 -24 -17 -30 -13 -6 3 -11 -1 -11 -10 0
-17 29 -17 43 0 4 6 5 -8 1 -30 -4 -22 -12 -43 -18 -47 -7 -5 -5 -8 6 -8 9 0
18 10 21 23 3 15 5 12 6 -11 0 -18 5 -31 10 -27 11 6 25 -12 26 -38 1 -12 -3
-16 -14 -12 -12 5 -13 3 -4 -6 15 -15 34 -3 26 19 -5 13 -3 14 7 5 7 -6 20 -9
29 -6 9 4 5 -3 -9 -15 -14 -12 -20 -22 -15 -22 12 0 16 -90 4 -90 -5 0 -9 -11
-9 -24 0 -13 -6 -27 -12 -30 -7 -3 -3 -3 8 -1 14 4 24 0 28 -10 4 -12 -2 -15
-29 -15 -21 0 -35 5 -35 13 0 8 -3 7 -9 -3 -8 -12 -58 -14 -318 -13 -482 3
-543 4 -543 15 0 6 7 8 14 5 10 -4 13 -1 9 9 -3 8 0 21 7 29 7 9 11 18 8 21
-3 2 -13 -7 -22 -20 -10 -16 -22 -23 -31 -20 -10 4 -14 1 -12 -7 2 -8 2 -11 0
-6 -8 13 -23 8 -23 -8 0 -12 -16 -15 -85 -15 -63 0 -85 3 -85 13 0 19 60 98
70 92 5 -3 14 1 22 8 15 15 84 21 93 8 7 -13 -27 -71 -42 -71 -7 0 -13 -3 -13
-7 0 -12 20 -39 20 -28 0 6 13 17 29 27 24 13 30 23 29 49 -1 36 -17 59 -42
59 -9 0 -16 8 -16 18 -1 16 -1 16 -14 -1 -13 -16 -14 -16 -19 3 -5 18 -1 21
21 19 25 -2 77 8 95 18 4 3 3 11 -3 18 -5 7 -9 21 -9 31 6 63 -13 86 -32 38
-14 -37 -20 -26 -10 19 10 42 5 48 -10 15 -8 -20 -9 -19 -4 7 6 29 60 95 78
95 4 0 5 -9 2 -20 -3 -11 -2 -20 3 -20 5 0 8 -10 8 -22 -1 -13 4 -22 12 -20 6
1 12 -3 12 -8 0 -5 -7 -10 -16 -10 -9 0 -14 -7 -12 -17 4 -21 39 -24 46 -4 3
8 0 11 -7 7 -7 -5 -9 -1 -5 8 4 9 18 16 34 16 29 0 48 16 35 28 -4 4 -10 1
-12 -5 -7 -18 -62 -16 -69 2 -4 8 -1 22 6 31 10 12 11 17 1 27 -10 9 -11 8 -5
-8 5 -16 4 -17 -6 -9 -20 19 -3 54 28 55 l27 2 -27 4 c-34 5 -35 13 -4 41 21
18 26 19 36 6 12 -13 34 -10 26 4 -2 4 5 16 15 26 11 12 19 14 19 7 0 -7 5 -9
11 -6 6 4 8 26 6 50 -5 43 5 76 11 38 2 -10 12 -24 23 -32z m724 9 c24 0 24
-1 8 -20 -13 -14 -19 -17 -23 -8 -3 7 -12 14 -20 16 -8 2 -16 8 -18 13 -2 5
-10 9 -18 9 -8 0 -11 -6 -7 -17 5 -15 3 -14 -10 2 -23 29 -21 34 13 29 20 -4
30 -1 31 8 0 7 4 3 9 -9 6 -15 18 -23 35 -23z m-3337 -15 c-3 -3 -9 2 -12 12
-6 14 -5 15 5 6 7 -7 10 -15 7 -18z m825 -30 c23 -27 46 -45 59 -45 12 0 30
-7 40 -17 11 -9 18 -11 18 -5 0 7 -3 12 -7 12 -5 0 -14 12 -20 28 l-13 27 21
-25 c11 -14 27 -34 36 -45 9 -11 23 -29 32 -39 13 -16 13 -18 1 -11 -15 8 7
-19 65 -83 16 -18 29 -36 28 -40 -2 -4 0 -7 5 -7 4 0 13 -4 20 -8 20 -13 10
15 -13 36 -31 29 5 8 52 -31 l43 -34 -23 -25 c-12 -14 -30 -34 -39 -44 -10
-10 -15 -19 -11 -19 3 0 4 -3 1 -6 -9 -9 -101 41 -171 94 -35 26 -104 84 -152
127 -47 44 -93 84 -101 88 -11 6 -5 16 24 45 21 20 42 45 45 55 10 26 19 21
60 -28z m2550 18 c-7 -2 -13 -11 -13 -19 0 -8 -4 -14 -10 -14 -5 0 -10 4 -10
8 0 12 22 32 35 31 5 0 4 -3 -2 -6z m-3350 -31 c-4 -18 -8 -20 -20 -10 -13 10
-13 14 3 25 22 16 25 13 17 -15z m3257 -3 c0 -14 -17 -10 -23 5 -4 10 -1 13 9
9 7 -3 14 -9 14 -14z m-3052 -1 c-6 -16 -38 -23 -38 -9 0 6 7 7 17 4 11 -4 14
-3 9 5 -4 7 -2 12 4 12 7 0 10 -6 8 -12z m-128 -28 c-6 -11 -19 -24 -29 -30
-16 -8 -18 -7 -14 10 3 11 12 20 19 20 8 0 14 5 14 10 0 6 5 10 10 10 7 0 7
-6 0 -20z m35 10 c-4 -7 2 -9 19 -4 21 5 25 3 20 -10 -3 -9 -10 -14 -14 -11
-4 3 -13 -2 -20 -10 -7 -8 -19 -15 -27 -15 -8 0 -11 -5 -7 -12 4 -7 3 -8 -4
-4 -14 8 2 46 18 46 6 0 9 3 9 8 -2 12 1 22 7 22 3 0 2 -5 -1 -10z m3148 -14
c4 -10 1 -13 -8 -9 -8 3 -12 9 -9 14 7 12 11 11 17 -5z m177 5 c0 -5 -5 -11
-12 -13 -7 -3 2 -11 20 -19 19 -8 32 -21 32 -32 0 -11 9 -21 20 -24 11 -3 20
-9 20 -13 0 -5 14 -13 30 -19 17 -5 30 -17 30 -26 0 -9 5 -13 10 -10 6 4 19
-13 30 -37 22 -49 25 -73 8 -62 -8 5 -9 2 -4 -12 4 -10 10 -39 13 -64 3 -25 9
-48 15 -51 7 -4 6 -9 -2 -14 -9 -6 -9 -10 1 -16 10 -6 11 -9 2 -9 -7 0 -13 -7
-13 -15 0 -8 5 -15 10 -15 6 0 10 -16 10 -35 l0 -35 -103 0 c-98 0 -105 1
-116 23 l-12 22 5 -23 c4 -20 1 -22 -40 -20 -24 0 -44 2 -44 4 0 1 3 9 6 18 8
20 24 21 24 1 0 -8 5 -15 11 -15 6 0 8 9 4 20 -5 15 -3 18 9 14 11 -4 16 0 16
14 0 11 4 22 9 24 5 2 12 24 14 50 3 26 8 52 11 57 4 5 2 12 -3 15 -11 7 -21
-17 -21 -50 0 -14 -6 -24 -14 -24 -15 0 -17 31 -2 42 13 9 10 63 -5 90 -7 13
-12 30 -11 38 1 10 -1 11 -4 3 -3 -7 -11 -13 -16 -13 -6 0 -8 3 -5 7 4 3 -1
15 -10 25 -16 17 -32 70 -17 55 4 -3 16 -1 28 5 11 7 29 11 38 10 12 -2 15 2
11 18 -3 11 -9 20 -14 20 -14 0 -11 28 4 33 9 4 9 7 -1 15 -7 5 -12 15 -10 23
5 23 38 40 38 20z m-220 -16 c0 -3 -12 -17 -26 -30 l-27 -25 24 0 c22 -1 23
-1 5 -11 -14 -9 -20 -8 -27 2 -13 21 -11 27 11 34 11 3 20 13 20 21 0 8 5 14
10 14 6 0 10 -2 10 -5z m-80 -45 c0 -11 -4 -20 -9 -20 -5 0 -7 9 -4 20 3 11 7
20 9 20 2 0 4 -9 4 -20z m103 -7 c-5 -12 -7 -12 -14 -1 -13 20 -11 28 5 22 8
-3 12 -12 9 -21z m-80 -60 c-3 -7 -10 -13 -16 -13 -6 0 -7 3 -4 7 4 3 -1 12
-11 20 -16 12 -16 13 1 7 11 -4 17 -1 17 7 0 11 2 11 9 0 5 -8 7 -20 4 -28z
m124 -49 c-3 -3 -12 -4 -19 -1 -8 3 -5 6 6 6 11 1 17 -2 13 -5z m13 -94 c0
-11 -4 -20 -9 -20 -5 0 -7 9 -4 20 3 11 7 20 9 20 2 0 4 -9 4 -20z m-2124 -18
c-18 -16 -18 -16 -6 6 6 13 14 21 18 18 3 -4 -2 -14 -12 -24z m1159 -12 c3 -5
1 -10 -4 -10 -6 0 -11 5 -11 10 0 6 2 10 4 10 3 0 8 -4 11 -10z m1055 -80 c0
-5 -2 -10 -4 -10 -3 0 -8 5 -11 10 -3 6 -1 10 4 10 6 0 11 -4 11 -10z m27 -43
c-4 -12 -47 -17 -47 -5 0 4 7 8 16 8 8 0 12 4 9 10 -3 6 1 7 10 4 9 -4 14 -11
12 -17z m-80 -21 c4 -7 15 -16 23 -19 8 -4 0 -4 -19 -1 -23 4 -31 3 -27 -5 4
-6 14 -11 22 -11 8 0 14 -4 14 -10 0 -5 -5 -10 -11 -10 -5 0 -7 -4 -4 -10 3
-5 1 -10 -4 -10 -6 0 -11 7 -11 15 0 8 -4 15 -9 15 -14 0 -18 33 -6 47 13 16
22 16 32 -1z"/>
<path d="M1135 4435 c-40 -30 -103 -95 -91 -95 6 0 36 25 66 55 55 55 62 67
25 40z"/>
<path d="M996 4183 c-6 -14 -5 -15 5 -6 7 7 10 15 7 18 -3 3 -9 -2 -12 -12z"/>
<path d="M3646 4212 c-3 -5 1 -9 9 -9 8 0 12 4 9 9 -3 4 -7 8 -9 8 -2 0 -6 -4
-9 -8z"/>
<path d="M3691 4197 c-13 -21 -12 -21 5 -5 10 10 16 20 13 22 -3 3 -11 -5 -18
-17z"/>
<path d="M3665 4160 c-3 -5 -1 -10 4 -10 6 0 11 5 11 10 0 6 -2 10 -4 10 -3 0
-8 -4 -11 -10z"/>
<path d="M3680 4119 c0 -5 5 -7 10 -4 6 3 10 8 10 11 0 2 -4 4 -10 4 -5 0 -10
-5 -10 -11z"/>
<path d="M3703 4065 c-3 -9 -3 -18 -1 -21 3 -3 8 4 11 16 6 23 -1 27 -10 5z"/>
<path d="M3664 4026 c1 -18 6 -22 21 -18 11 3 14 7 7 10 -7 2 -10 7 -7 12 3 4
-1 10 -9 13 -9 4 -13 -2 -12 -17z"/>
<path d="M3660 3910 c-8 -5 -12 -12 -9 -15 4 -3 12 1 19 10 14 17 11 19 -10 5z"/>
<path d="M3785 3890 c-3 -5 -2 -10 4 -10 5 0 13 5 16 10 3 6 2 10 -4 10 -5 0
-13 -4 -16 -10z"/>
<path d="M3677 3853 c-11 -11 -8 -20 7 -20 8 0 12 6 9 14 -6 15 -7 15 -16 6z"/>
<path d="M2221 3879 c25 -36 27 -31 -42 -82 -15 -12 -11 -10 13 3 21 12 43 18
49 14 8 -4 9 -3 5 4 -4 7 -3 12 2 12 5 0 15 -11 22 -25 18 -33 77 -60 174 -80
43 -8 94 -22 113 -30 45 -19 87 -19 102 -1 16 19 -13 35 -99 53 -78 16 -219
59 -240 73 -13 9 -12 13 6 28 21 18 21 18 -12 19 -19 1 -52 11 -75 22 l-41 22
23 -32z"/>
<path d="M2050 3735 c-77 -39 -151 -97 -138 -110 2 -3 45 17 94 45 49 27 94
50 100 50 14 0 37 27 40 46 3 18 4 18 -96 -31z m85 15 c-3 -5 -14 -10 -23 -10
-15 0 -15 2 -2 10 20 13 33 13 25 0z"/>
<path d="M2686 3184 c-4 -12 -2 -15 9 -10 8 3 15 1 15 -4 0 -6 7 -10 15 -10
20 0 19 26 -1 34 -24 9 -31 7 -38 -10z"/>
<path d="M2621 3049 c-41 -16 -124 -21 -156 -10 -29 11 -28 10 10 -23 22 -18
44 -33 50 -31 5 1 7 0 3 -2 -18 -10 -6 -23 20 -23 41 0 54 13 46 43 -4 19 -2
27 7 27 20 1 77 28 59 29 -8 0 -26 -5 -39 -10z m-91 -35 c0 -8 -19 -13 -24 -6
-3 5 1 9 9 9 8 0 15 -2 15 -3z m43 -21 c-3 -7 -9 -13 -13 -13 -4 0 -10 6 -13
13 -3 7 3 13 13 13 10 0 16 -6 13 -13z"/>
<path d="M3665 3270 c-17 -7 -17 -9 -2 -9 9 -1 17 -5 17 -11 0 -19 16 -10 17
10 2 22 -2 23 -32 10z"/>
<path d="M3590 3250 c0 -6 -11 -8 -25 -6 -14 3 -25 1 -25 -3 0 -11 58 -12 65
-1 3 5 1 11 -5 15 -5 3 -10 1 -10 -5z"/>
<path d="M3760 3249 c0 -5 5 -7 10 -4 6 3 10 8 10 11 0 2 -4 4 -10 4 -5 0 -10
-5 -10 -11z"/>
<path d="M3577 3193 c-4 -3 -7 -11 -7 -17 0 -6 5 -5 12 2 6 6 9 14 7 17 -3 3
-9 2 -12 -2z"/>
<path d="M3440 3171 c0 -5 5 -13 10 -16 6 -3 10 -2 10 4 0 5 -4 13 -10 16 -5
3 -10 2 -10 -4z"/>
<path d="M3840 3169 c0 -5 5 -7 10 -4 6 3 10 8 10 11 0 2 -4 4 -10 4 -5 0 -10
-5 -10 -11z"/>
<path d="M3570 3120 c0 -5 5 -10 10 -10 6 0 10 5 10 10 0 6 -4 10 -10 10 -5 0
-10 -4 -10 -10z"/>
<path d="M3377 3106 c-4 -10 -1 -16 7 -16 8 0 17 -6 19 -12 3 -7 6 -8 6 -2 1
5 -5 18 -12 28 -12 17 -14 17 -20 2z"/>
<path d="M3284 3088 l-19 -23 23 19 c21 18 27 26 19 26 -2 0 -12 -10 -23 -22z"/>
<path d="M3892 3086 c7 -8 17 -12 22 -9 4 3 2 9 -5 14 -22 13 -31 11 -17 -5z"/>
<path d="M3950 3083 c-33 -13 -39 -43 -9 -43 11 0 17 4 14 10 -4 6 -1 17 5 25
13 16 13 16 -10 8z"/>
<path d="M3365 3070 c-3 -5 -1 -10 4 -10 6 0 11 5 11 10 0 6 -2 10 -4 10 -3 0
-8 -4 -11 -10z"/>
<path d="M3868 3072 c7 -5 10 -16 7 -24 -8 -20 13 -34 28 -18 9 9 9 11 -3 8
-8 -2 -14 5 -15 16 0 11 -7 21 -15 23 -11 4 -12 2 -2 -5z"/>
<path d="M3288 3053 c7 -3 16 -2 19 1 4 3 -2 6 -13 5 -11 0 -14 -3 -6 -6z"/>
<path d="M4026 3025 c-3 -10 1 -15 13 -15 10 0 18 7 18 15 0 8 -6 15 -13 15
-6 0 -14 -7 -18 -15z"/>
<path d="M3353 2921 c0 -11 5 -18 9 -15 4 3 5 11 1 19 -7 21 -12 19 -10 -4z"/>
<path d="M3950 2920 c-9 -6 -10 -10 -3 -10 6 0 15 5 18 10 8 12 4 12 -15 0z"/>
<path d="M3350 2820 c0 -11 4 -20 8 -20 4 0 8 9 8 20 0 11 -4 20 -8 20 -4 0
-8 -9 -8 -20z"/>
<path d="M3193 2790 c-24 -19 -30 -40 -13 -40 6 0 10 7 10 15 0 20 18 19 22 0
2 -13 5 -12 15 4 19 30 -5 45 -34 21z"/>
<path d="M3140 2771 c0 -7 -4 -10 -9 -7 -14 9 -6 -23 9 -37 12 -10 12 -9 2 4
-9 12 -9 18 0 27 6 6 9 15 5 19 -4 3 -7 1 -7 -6z"/>
<path d="M2025 2970 c-3 -5 -1 -10 4 -10 6 0 11 5 11 10 0 6 -2 10 -4 10 -3 0
-8 -4 -11 -10z"/>
<path d="M4305 3030 c-3 -6 1 -7 9 -4 18 7 21 14 7 14 -6 0 -13 -4 -16 -10z"/>
<path d="M3380 4970 c9 -6 11 -10 3 -10 -14 0 -6 -28 14 -48 14 -15 8 -36 -8
-27 -5 4 -9 1 -9 -4 0 -6 6 -11 14 -11 7 0 19 -7 26 -16 8 -8 9 -14 4 -13 -5
1 -20 1 -33 0 -18 -1 -21 -4 -12 -14 6 -8 8 -18 4 -23 -4 -5 -2 -4 6 3 7 6 20
9 27 6 8 -3 14 1 14 8 0 11 2 11 10 -1 7 -12 12 -8 25 20 9 19 14 25 11 13 -2
-13 1 -26 6 -30 7 -3 8 -1 4 5 -4 7 -2 12 3 12 18 0 12 32 -10 51 -17 15 -18
19 -5 26 19 10 8 30 -19 35 -11 1 -23 8 -27 13 -4 6 -8 1 -8 -10 0 -18 -1 -18
-16 3 -8 12 -21 22 -27 22 -7 0 -6 -4 3 -10z m78 -103 c2 -9 -2 -17 -8 -17 -6
0 -8 5 -4 11 3 6 0 16 -7 21 -12 8 -11 9 1 5 8 -2 16 -11 18 -20z"/>
<path d="M3505 4900 c3 -5 8 -10 11 -10 2 0 4 5 4 10 0 6 -5 10 -11 10 -5 0
-7 -4 -4 -10z"/>
<path d="M3561 4896 c-8 -10 -9 -16 -1 -21 5 -3 13 1 16 10 9 22 -1 29 -15 11z"/>
<path d="M3361 4864 c0 -11 3 -14 6 -6 3 7 2 16 -1 19 -3 4 -6 -2 -5 -13z"/>
<path d="M3630 4869 c0 -7 -9 -9 -21 -6 -13 3 -19 1 -16 -6 4 -12 55 -18 62
-7 1 3 -3 11 -11 18 -10 9 -14 9 -14 1z"/>
<path d="M3560 4831 c0 -16 -5 -32 -10 -34 -6 -3 -5 -4 2 -3 15 3 29 54 17 62
-5 3 -9 -8 -9 -25z"/>
<path d="M3510 4840 c0 -5 7 -7 15 -4 8 4 15 8 15 10 0 2 -7 4 -15 4 -8 0 -15
-4 -15 -10z"/>
<path d="M3590 4820 c0 -5 5 -10 11 -10 5 0 7 5 4 10 -3 6 -8 10 -11 10 -2 0
-4 -4 -4 -10z"/>
<path d="M3465 4800 c-3 -6 1 -7 9 -4 18 7 21 14 7 14 -6 0 -13 -4 -16 -10z"/>
<path d="M3420 4790 c0 -5 5 -10 10 -10 6 0 10 5 10 10 0 6 -4 10 -10 10 -5 0
-10 -4 -10 -10z"/>
<path d="M1245 4750 c-3 -5 -2 -10 4 -10 5 0 13 5 16 10 3 6 2 10 -4 10 -5 0
-13 -4 -16 -10z"/>
<path d="M3690 4748 c0 -11 28 -10 35 1 3 6 -4 9 -15 8 -11 -1 -20 -5 -20 -9z"/>
<path d="M3450 4692 c0 -5 7 -15 15 -22 8 -7 15 -9 15 -6 0 4 -7 14 -15 22 -8
9 -15 11 -15 6z"/>
<path d="M3540 4630 c0 -5 5 -10 11 -10 5 0 7 5 4 10 -3 6 -8 10 -11 10 -2 0
-4 -4 -4 -10z"/>
<path d="M3536 4588 c4 -7 16 -19 27 -27 11 -8 15 -16 9 -20 -18 -11 13 -41
49 -47 31 -6 33 -5 15 8 -12 10 -16 20 -11 29 5 8 -2 5 -14 -6 -18 -15 -22
-16 -21 -5 5 35 -1 60 -15 60 -8 0 -15 5 -15 10 0 6 -7 10 -16 10 -9 0 -12 -5
-8 -12z"/>
<path d="M1067 4543 c-4 -3 -7 -11 -7 -17 0 -6 5 -5 12 2 6 6 9 14 7 17 -3 3
-9 2 -12 -2z"/>
<path d="M3650 4525 c0 -8 2 -15 4 -15 2 0 6 7 10 15 3 8 1 15 -4 15 -6 0 -10
-7 -10 -15z"/>
<path d="M895 4500 c-8 -13 3 -30 18 -29 9 0 9 2 0 5 -7 3 -9 12 -6 20 6 16
-3 19 -12 4z"/>
<path d="M960 4490 c0 -5 5 -10 11 -10 5 0 7 5 4 10 -3 6 -8 10 -11 10 -2 0
-4 -4 -4 -10z"/>
<path d="M941 4434 c-1 -15 -59 -24 -64 -10 -5 16 -37 -13 -37 -33 1 -14 2
-14 14 2 12 15 13 12 10 -27 -3 -40 -1 -45 22 -50 14 -4 29 -4 34 -1 4 3 11
-1 13 -7 3 -8 6 -5 6 5 1 14 -4 17 -20 12 -27 -9 -49 20 -40 54 7 26 34 43 30
20 -3 -26 1 -39 13 -39 9 0 9 3 0 12 -8 8 -6 16 9 29 12 10 19 24 16 31 -3 8
-6 8 -6 2z"/>
<path d="M3650 4415 c0 -8 4 -15 10 -15 5 0 7 7 4 15 -4 8 -8 15 -10 15 -2 0
-4 -7 -4 -15z"/>
<path d="M810 4410 c0 -5 5 -10 10 -10 6 0 10 5 10 10 0 6 -4 10 -10 10 -5 0
-10 -4 -10 -10z"/>
<path d="M956 4404 c-9 -22 -8 -26 6 -22 13 5 20 38 8 38 -4 0 -11 -7 -14 -16z"/>
<path d="M762 4368 c2 -6 10 -13 16 -14 7 -1 8 0 2 3 -5 2 -8 9 -4 14 3 5 0 9
-6 9 -7 0 -10 -5 -8 -12z"/>
<path d="M815 4370 c3 -5 8 -10 11 -10 2 0 4 5 4 10 0 6 -5 10 -11 10 -5 0 -7
-4 -4 -10z"/>
<path d="M977 4340 c3 -11 7 -20 9 -20 2 0 4 9 4 20 0 11 -4 20 -9 20 -5 0 -7
-9 -4 -20z"/>
<path d="M731 4319 c-11 -18 -15 -19 -23 -8 -8 11 -9 11 -5 -2 3 -9 1 -22 -4
-30 -7 -11 -9 -10 -9 4 0 12 -13 3 -42 -31 -109 -125 -109 -124 -67 -135 14
-4 19 -1 16 7 -3 8 5 12 22 12 16 -1 25 4 23 12 -1 6 7 12 18 12 19 0 25 14
21 47 -1 6 4 15 10 19 9 5 10 2 6 -9 -3 -9 -2 -19 4 -22 5 -4 12 1 16 11 7 18
-20 44 -40 40 -7 -1 -2 2 11 8 12 5 22 13 22 18 0 4 7 8 15 8 8 0 15 8 15 18
0 10 5 23 12 30 7 7 8 12 2 12 -5 0 -15 -10 -23 -21z m-71 -99 c0 -5 -2 -10
-4 -10 -3 0 -8 5 -11 10 -3 6 -1 10 4 10 6 0 11 -4 11 -10z"/>
<path d="M840 4324 c0 -11 -6 -14 -22 -9 -20 6 -21 5 -8 -6 8 -8 20 -19 26
-26 7 -8 10 -2 11 23 1 19 -1 34 -3 34 -2 0 -4 -7 -4 -16z"/>
<path d="M790 4156 c0 -8 -6 -16 -12 -19 -7 -2 -10 -8 -5 -12 4 -5 14 0 22 11
17 23 19 34 5 34 -5 0 -10 -6 -10 -14z"/>
<path d="M740 4138 c0 -16 5 -28 10 -28 13 0 13 20 0 40 -8 12 -10 9 -10 -12z"/>
<path d="M530 4106 c0 -7 -7 -16 -15 -20 -29 -11 -17 -36 17 -36 25 0 29 3 20
12 -7 7 -12 18 -12 26 0 12 3 12 15 2 10 -8 15 -9 15 -2 0 6 -9 16 -20 22 -16
8 -20 8 -20 -4z"/>
<path d="M625 4110 c3 -5 8 -10 11 -10 2 0 4 5 4 10 0 6 -5 10 -11 10 -5 0 -7
-4 -4 -10z"/>
<path d="M700 4095 c-10 -12 -10 -15 4 -15 9 0 16 7 16 15 0 8 -2 15 -4 15 -2
0 -9 -7 -16 -15z"/>
<path d="M785 4101 c-3 -5 -1 -12 5 -16 5 -3 10 1 10 9 0 18 -6 21 -15 7z"/>
<path d="M650 4093 c0 -15 29 -49 30 -35 0 7 -7 20 -15 28 -8 9 -15 11 -15 7z"/>
<path d="M731 4084 c0 -11 3 -14 6 -6 3 7 2 16 -1 19 -3 4 -6 -2 -5 -13z"/>
<path d="M595 4076 c-5 -6 -17 -20 -25 -31 -14 -19 -14 -19 5 -5 34 26 45 39
38 43 -5 3 -12 0 -18 -7z"/>
<path d="M808 4053 c7 -3 16 -2 19 1 4 3 -2 6 -13 5 -11 0 -14 -3 -6 -6z"/>
<path d="M920 4039 c0 -5 5 -7 10 -4 6 3 10 8 10 11 0 2 -4 4 -10 4 -5 0 -10
-5 -10 -11z"/>
<path d="M940 4015 c0 -5 5 -17 10 -25 5 -8 10 -10 10 -5 0 6 -5 17 -10 25 -5
8 -10 11 -10 5z"/>
<path d="M840 4002 c0 -4 10 -9 22 -9 18 -2 20 0 8 7 -18 12 -30 13 -30 2z"/>
<path d="M1027 3906 c-4 -10 -1 -13 8 -9 8 3 12 9 9 14 -7 12 -11 11 -17 -5z"/>
<path d="M461 3894 c0 -11 3 -14 6 -6 3 7 2 16 -1 19 -3 4 -6 -2 -5 -13z"/>
<path d="M980 3825 c-14 -16 -10 -18 14 -9 9 3 16 10 16 15 0 14 -16 11 -30
-6z"/>
<path d="M346 3753 c-6 -14 -5 -15 5 -6 7 7 10 15 7 18 -3 3 -9 -2 -12 -12z"/>
<path d="M305 3750 c3 -5 8 -10 11 -10 2 0 4 5 4 10 0 6 -5 10 -11 10 -5 0 -7
-4 -4 -10z"/>
<path d="M880 3721 c0 -5 5 -13 10 -16 6 -3 10 -2 10 4 0 5 -4 13 -10 16 -5 3
-10 2 -10 -4z"/>
<path d="M310 3680 c-9 -6 -10 -10 -3 -10 6 0 15 5 18 10 8 12 4 12 -15 0z"/>
<path d="M790 3601 c0 -11 4 -22 9 -25 4 -3 6 6 3 19 -5 30 -12 33 -12 6z"/>
<path d="M867 3604 c-4 -4 -7 -14 -7 -23 0 -11 3 -12 11 -4 6 6 10 16 7 23 -2
6 -7 8 -11 4z"/>
<path d="M926 3557 c3 -10 9 -15 12 -12 3 3 0 11 -7 18 -10 9 -11 8 -5 -6z"/>
<path d="M850 3110 c0 -5 7 -7 15 -4 8 4 15 8 15 10 0 2 -7 4 -15 4 -8 0 -15
-4 -15 -10z"/>
<path d="M2852 2158 c3 -146 5 -173 18 -173 12 0 16 18 20 82 6 91 22 123 64
123 35 0 40 -13 46 -115 4 -71 8 -90 20 -90 12 0 16 17 18 84 3 91 -9 135 -40
152 -23 13 -66 4 -90 -18 -17 -15 -18 -12 -18 55 0 66 -2 72 -20 72 -20 0 -20
-5 -18 -172z"/>
<path d="M3870 2161 c0 -162 7 -203 28 -165 9 16 11 16 33 0 55 -38 123 -4
140 72 24 107 -49 190 -130 148 l-31 -17 0 66 c0 58 -2 65 -20 65 -19 0 -20
-7 -20 -169z m142 12 c13 -12 18 -30 18 -69 0 -61 -17 -84 -60 -84 -54 0 -78
76 -45 140 18 35 57 40 87 13z"/>
<path d="M1894 2305 c-4 -9 -2 -21 4 -27 16 -16 47 -5 47 17 0 26 -42 34 -51
10z"/>
<path d="M3687 2307 c-8 -21 8 -39 29 -35 27 5 25 42 -2 46 -12 2 -24 -3 -27
-11z"/>
<path d="M532 2148 c3 -146 5 -163 21 -166 15 -3 17 5 17 66 0 108 16 111 82
15 35 -52 61 -79 76 -81 12 -2 22 0 22 3 0 4 -28 47 -61 95 l-62 89 57 64 c31
35 56 67 56 71 0 3 -8 6 -17 6 -10 0 -48 -33 -85 -72 l-68 -73 2 73 c3 69 2
72 -20 72 l-22 0 2 -162z"/>
<path d="M2383 2300 c-42 -17 -56 -77 -27 -119 9 -12 37 -32 63 -43 79 -33
100 -67 65 -102 -22 -23 -89 -21 -114 4 -19 19 -20 19 -29 1 -15 -27 19 -53
76 -58 64 -6 109 22 119 72 9 47 -15 81 -74 107 -80 35 -101 67 -66 102 21 22
56 20 87 -4 21 -17 27 -17 36 -6 9 11 6 18 -15 35 -28 22 -81 27 -121 11z"/>
<path d="M1633 2283 c-7 -2 -13 -18 -13 -34 0 -24 -4 -29 -25 -29 -16 0 -25
-6 -25 -15 0 -9 9 -15 25 -15 25 0 25 -1 25 -85 0 -72 3 -88 20 -105 23 -23
57 -26 95 -8 46 21 28 48 -20 29 -42 -17 -55 3 -55 89 l0 80 40 0 c29 0 40 4
40 15 0 11 -11 15 -41 15 l-42 0 6 35 c6 35 0 41 -30 28z"/>
<path d="M898 2215 c-16 -9 -28 -11 -28 -5 0 5 -9 10 -20 10 -19 0 -20 -7 -20
-121 0 -109 2 -120 18 -117 14 3 18 18 22 91 4 73 9 91 24 103 24 17 68 18 84
2 9 -9 13 -7 18 6 4 10 3 21 -2 26 -18 18 -69 20 -96 5z"/>
<path d="M1102 2210 c-38 -24 -52 -54 -52 -117 0 -38 5 -50 34 -79 26 -26 42
-34 70 -34 41 0 86 18 86 35 0 21 -11 23 -40 9 -49 -25 -110 7 -110 58 0 16
10 18 80 18 l80 0 0 34 c0 75 -82 117 -148 76z m88 -30 c37 -37 26 -50 -40
-50 -33 0 -60 3 -60 6 0 16 24 46 43 54 32 13 35 12 57 -10z"/>
<path d="M1353 2215 c-23 -10 -31 -19 -27 -29 7 -18 20 -21 29 -6 10 16 82 12
99 -6 28 -28 20 -44 -24 -44 -107 0 -170 -97 -90 -140 28 -15 82 -12 108 6 20
14 22 14 22 0 0 -9 9 -16 20 -16 18 0 20 7 20 85 0 101 -15 138 -61 154 -41
14 -57 13 -96 -4z m117 -135 c0 -29 -44 -70 -74 -70 -23 0 -56 23 -56 38 1 27
45 50 98 51 26 1 32 -3 32 -19z"/>
<path d="M2652 2213 c-61 -30 -81 -116 -42 -181 32 -51 93 -66 151 -36 32 16
34 41 3 36 -83 -15 -91 -14 -113 13 -43 56 -12 145 51 145 17 0 39 -7 49 -16
19 -17 39 -12 39 10 0 15 -58 46 -87 46 -10 0 -33 -8 -51 -17z"/>
<path d="M3196 2209 c-21 -17 -26 -18 -26 -5 0 9 -9 16 -20 16 -20 0 -21 -5
-18 -117 3 -103 5 -118 21 -121 15 -3 17 6 17 76 0 65 4 84 21 106 21 27 66
35 85 16 8 -8 15 -6 23 4 10 11 8 17 -11 30 -31 22 -60 20 -92 -5z"/>
<path d="M3410 2213 c-65 -33 -78 -139 -25 -200 20 -24 31 -28 78 -28 60 0 95
19 76 41 -9 11 -15 11 -35 -2 -15 -10 -33 -14 -53 -9 -35 7 -47 20 -56 58 l-7
27 87 0 88 0 -6 37 c-12 73 -82 109 -147 76z m85 -38 c38 -37 32 -45 -39 -45
-60 0 -64 1 -59 20 6 22 40 50 61 50 7 0 24 -11 37 -25z"/>
<path d="M4174 2212 c-40 -25 -58 -70 -51 -128 6 -58 39 -93 94 -101 51 -7
111 20 93 42 -10 12 -15 12 -36 -1 -44 -29 -114 7 -114 58 0 16 10 18 79 18
44 0 82 4 85 8 9 15 -13 78 -33 96 -29 27 -81 30 -117 8z m84 -28 c12 -8 22
-24 22 -35 0 -17 -7 -19 -60 -19 -66 0 -73 8 -35 45 28 29 42 31 73 9z"/>
<path d="M4476 2209 c-21 -17 -26 -18 -26 -5 0 9 -9 16 -20 16 -20 0 -21 -5
-18 -117 3 -103 5 -118 21 -121 15 -3 17 6 17 76 0 65 4 84 21 106 21 27 66
35 85 16 8 -8 15 -6 23 4 10 11 8 17 -11 30 -31 22 -60 20 -92 -5z"/>
<path d="M1840 2205 c0 -10 10 -15 30 -15 l30 0 0 -85 0 -85 -31 0 c-24 0 -30
-4 -27 -17 3 -15 15 -18 78 -18 63 0 75 3 78 18 3 13 -3 17 -27 17 l-31 0 0
100 0 100 -50 0 c-38 0 -50 -4 -50 -15z"/>
<path d="M2070 2215 c0 -3 21 -57 46 -120 33 -81 51 -115 61 -113 14 3 84 152
98 211 6 23 4 27 -14 27 -12 0 -21 -6 -21 -15 0 -19 -50 -144 -60 -150 -4 -2
-22 34 -40 80 -25 64 -37 85 -51 85 -11 0 -19 -2 -19 -5z"/>
<path d="M3640 2205 c0 -9 9 -15 25 -15 25 0 25 -1 25 -84 l0 -85 -27 -3 c-17
-2 -28 -9 -28 -18 0 -12 15 -15 75 -15 63 0 75 3 78 18 3 13 -3 17 -27 17
l-31 0 0 100 0 100 -45 0 c-33 0 -45 -4 -45 -15z"/>
<path d="M106 1833 c16 -67 86 -248 136 -355 50 -104 59 -117 89 -126 19 -6
77 -24 129 -40 152 -48 233 -70 265 -73 17 -2 35 -7 41 -11 5 -4 46 -14 90
-22 43 -7 122 -24 174 -37 129 -32 165 -29 257 16 64 32 94 56 197 163 66 68
152 147 190 173 60 43 76 49 118 49 27 0 69 5 94 11 43 11 46 10 75 -17 17
-16 35 -37 41 -47 9 -18 6 -19 -46 -15 -55 3 -72 -4 -40 -16 9 -3 49 -6 89 -6
l74 0 -16 38 c-8 20 -21 44 -28 52 -6 8 -23 35 -36 60 -23 44 -67 106 -101
144 -10 11 -18 25 -18 31 0 6 -10 21 -23 33 l-23 22 -867 0 -867 0 6 -27z"/>
<path d="M1936 1848 c4 -7 35 -44 67 -83 33 -38 67 -79 76 -90 36 -45 91 -126
111 -164 11 -23 28 -41 37 -41 13 0 14 3 6 11 -18 18 19 81 66 112 53 35 135
38 175 6 32 -25 32 -33 0 -103 -30 -65 -44 -69 -94 -26 -35 29 -64 37 -87 22
-23 -15 -16 -38 28 -82 24 -25 52 -56 61 -70 l17 -25 0 31 c1 18 10 39 21 49
19 18 20 17 20 -3 0 -51 11 -52 50 -7 21 24 40 41 44 38 3 -3 22 3 43 13 71
35 200 20 248 -30 27 -27 45 -62 45 -86 0 -32 -34 -106 -64 -139 -20 -22 -20
-23 -1 -14 28 14 261 27 450 25 l160 -2 -28 25 c-19 16 -40 25 -63 25 -23 0
-34 5 -34 15 0 11 -5 12 -25 5 -25 -9 -37 4 -12 13 6 3 1 6 -13 6 -30 1 -86
46 -70 56 6 3 8 11 5 16 -4 5 -1 9 6 9 7 0 9 3 5 7 -4 5 -14 -1 -22 -11 -13
-19 -20 -11 -15 17 1 5 -3 6 -8 3 -5 -3 -25 13 -46 37 -48 54 -34 28 22 -41
24 -29 43 -60 43 -70 0 -12 -8 -7 -28 17 -44 56 -54 67 -46 52 4 -9 3 -12 -4
-7 -6 4 -9 12 -6 19 2 7 -10 26 -28 42 -31 28 -32 28 -9 3 14 -16 22 -30 19
-33 -3 -3 -23 14 -44 37 -21 24 -41 42 -44 40 -3 -2 -20 9 -38 23 -18 14 -54
36 -80 48 -26 13 -81 43 -122 67 l-75 45 48 3 c27 2 54 -2 61 -7 7 -6 30 -18
52 -26 l39 -16 -25 21 -25 22 25 -6 c14 -3 28 -6 31 -6 4 0 9 -10 12 -21 l6
-21 33 23 c18 13 35 26 38 30 6 9 36 6 45 -3 3 -3 19 -4 36 -2 20 3 32 -1 35
-11 4 -8 10 -15 15 -15 4 0 5 8 2 17 -5 13 -2 15 11 10 10 -4 22 -7 27 -7 16
0 -1 -20 -25 -31 -17 -8 -15 -9 11 -5 27 5 31 3 26 -12 -3 -9 -10 -23 -16 -29
-6 -9 -6 -13 2 -13 7 0 11 -6 10 -12 -1 -7 4 -26 11 -43 7 -16 12 -34 11 -39
-1 -4 11 -6 26 -2 27 6 27 6 9 -9 -18 -14 -15 -20 7 -16 5 1 7 -4 4 -11 -2 -7
-11 -12 -21 -10 -9 2 -16 -4 -16 -13 0 -19 26 -20 34 0 7 20 30 19 47 -2 13
-15 12 -16 -9 -11 -12 4 -20 2 -17 -2 3 -5 1 -11 -5 -15 -24 -15 -10 -21 63
-28 9 -1 17 -7 17 -14 0 -7 7 -13 15 -13 8 0 12 6 9 13 -3 9 2 13 18 11 13 -1
25 -3 28 -4 3 -1 8 -2 12 -1 4 0 4 -7 1 -16 -4 -10 -2 -14 4 -10 6 4 14 0 17
-9 9 -22 8 -24 -11 -24 -9 0 -14 -3 -10 -6 12 -13 46 7 42 26 -2 10 3 21 11
24 9 3 14 -1 14 -14 0 -14 7 -20 23 -19 16 0 18 2 7 7 -18 8 -23 41 -6 43 52
6 64 4 59 -11 -3 -11 0 -10 11 4 8 10 19 15 25 11 6 -3 11 0 11 7 1 9 5 7 14
-4 11 -15 12 -13 10 20 -3 49 -3 49 -15 32 -9 -13 -10 -12 -5 2 3 10 1 20 -5
23 -5 4 -7 11 -4 16 4 5 1 9 -4 9 -6 0 -11 -11 -11 -25 0 -19 -5 -25 -21 -25
-14 0 -19 5 -16 14 3 8 1 17 -6 20 -9 3 -8 7 3 15 12 8 16 6 21 -12 5 -21 6
-21 12 6 4 15 5 38 1 51 -6 26 -29 41 -39 27 -3 -5 2 -11 10 -15 8 -3 12 -12
9 -21 -5 -12 -9 -10 -21 11 -7 15 -11 34 -9 41 5 11 1 11 -17 2 -13 -8 -17
-14 -9 -17 6 -2 12 -10 12 -18 0 -8 6 -14 13 -14 6 -1 -1 -12 -17 -25 -17 -13
-34 -21 -39 -18 -5 3 -14 -1 -19 -8 -7 -10 -7 -7 -3 9 5 19 3 22 -22 22 -25 1
-26 2 -11 13 15 12 15 14 -3 25 -11 7 -17 17 -14 22 3 4 -1 14 -8 22 -20 19
-9 38 21 39 15 0 36 4 47 9 18 8 18 9 2 9 -10 1 -15 6 -12 11 3 6 1 10 -5 10
-7 0 -10 -7 -6 -15 3 -9 0 -15 -9 -15 -22 0 -18 23 5 38 11 7 20 8 20 3 0 -23
101 -41 179 -32 3 1 0 6 -7 13 -16 16 -15 25 4 32 14 5 15 4 5 -8 -10 -12 -8
-17 8 -26 14 -7 21 -7 21 0 0 15 21 12 34 -5 8 -11 15 -12 26 -4 13 9 12 10
-2 5 -10 -3 -18 -1 -18 4 0 6 7 10 16 10 14 0 14 3 4 15 -11 13 -8 15 17 15
16 0 35 -6 42 -12 11 -11 13 -10 9 2 -8 22 171 22 190 0 8 -8 11 -10 7 -3 -8
16 43 29 64 16 9 -5 31 -8 49 -7 l32 2 -21 -19 c-12 -11 -19 -22 -16 -25 3 -4
13 0 21 7 38 35 47 40 68 37 13 -2 28 -6 33 -10 6 -4 17 -3 25 3 24 15 31 10
24 -16 -4 -15 -2 -25 5 -25 6 0 11 12 11 26 0 22 4 25 28 22 21 -2 27 -9 29
-28 1 -14 0 -18 -3 -7 -3 9 -9 17 -14 17 -5 0 -6 -8 -3 -17 6 -16 5 -16 -11
-3 -17 13 -18 11 -15 -21 2 -19 0 -40 -5 -47 -5 -8 1 -12 22 -12 29 0 48 22
37 40 -3 4 4 6 15 3 12 -3 20 0 20 7 0 8 9 10 25 6 17 -4 25 -2 25 7 0 9 -12
11 -38 9 -34 -3 -38 -1 -40 22 -1 23 2 26 27 26 16 0 32 -6 34 -12 4 -10 8 -9
16 2 9 12 11 11 11 -9 l0 -24 20 23 20 23 21 -22 c12 -12 18 -25 15 -28 -3 -3
-1 -12 5 -19 7 -8 7 -14 -1 -19 -5 -3 -14 4 -19 17 -10 24 -10 26 -15 -89 -1
-26 30 -28 37 -3 3 13 10 18 21 14 10 -4 17 2 22 20 8 33 24 34 24 1 0 -16 -6
-25 -15 -25 -8 0 -15 -4 -15 -10 0 -5 -6 -7 -14 -4 -10 4 -16 -3 -18 -22 -2
-15 -10 -29 -18 -31 -13 -4 -13 -3 0 7 12 9 10 11 -12 7 -21 -3 -28 0 -31 17
-2 12 -3 7 -1 -11 3 -33 -25 -71 -33 -45 -6 15 -33 16 -33 1 0 -5 -5 -7 -11
-3 -18 11 18 26 44 18 20 -6 20 -5 8 10 -8 9 -20 15 -28 12 -7 -3 -13 -1 -13
4 0 6 -5 10 -11 10 -5 0 -8 -4 -5 -9 3 -5 -1 -11 -9 -14 -9 -4 -12 -1 -8 10 3
8 0 19 -8 24 -8 5 -9 9 -3 9 6 0 11 7 11 15 0 8 -4 15 -7 15 -4 0 -13 -7 -20
-15 -7 -8 -9 -15 -5 -15 5 0 0 -9 -10 -20 -10 -11 -28 -19 -39 -19 -16 1 -17
2 -4 6 12 3 16 14 15 38 -2 35 -13 35 -19 0 -4 -28 -28 -50 -54 -50 -13 -1
-20 3 -18 7 3 4 0 8 -5 8 -19 0 -12 -39 9 -52 21 -13 27 -38 10 -38 -6 0 -9 6
-8 13 4 18 -44 15 -65 -5 -22 -22 -38 -23 -31 -3 4 8 1 15 -5 15 -6 0 -13 -11
-17 -25 -3 -14 -12 -25 -20 -25 -9 0 -11 6 -7 18 6 15 5 15 -10 4 -9 -8 -21
-11 -27 -7 -5 3 -10 1 -10 -4 0 -6 6 -11 13 -11 7 0 24 -12 36 -27 13 -14 17
-24 10 -21 -8 3 -21 -1 -28 -10 -13 -13 -11 -14 12 -10 16 3 27 1 28 -6 0 -6
4 -2 9 9 5 11 9 14 9 6 1 -10 4 -11 15 -2 11 9 12 6 8 -14 -2 -14 -8 -28 -13
-31 -5 -3 -6 3 -2 12 5 13 0 12 -25 -6 -18 -13 -32 -25 -32 -26 0 -5 59 4 70
11 9 5 15 4 18 -4 3 -8 8 -9 17 -1 9 8 14 6 19 -5 4 -12 0 -14 -22 -10 -15 2
-34 0 -42 -5 -10 -6 34 -10 129 -10 79 0 142 3 138 6 -3 3 -31 6 -61 6 -31 1
-54 3 -51 6 3 3 0 11 -6 19 -15 17 -2 17 16 -1 8 -8 25 -11 40 -8 20 3 23 7
13 13 -10 7 -8 9 7 10 29 2 28 2 56 -5 21 -4 28 -1 37 17 10 20 11 20 10 2 -3
-50 1 -55 41 -55 30 0 40 4 44 20 3 11 1 18 -3 15 -5 -3 -7 7 -6 22 2 16 4 34
5 41 1 17 21 15 21 -3 0 -8 -4 -15 -10 -15 -5 0 -10 -5 -10 -11 0 -8 4 -8 13
0 10 8 17 7 25 -1 9 -9 12 -8 12 6 0 9 -4 14 -10 11 -12 -7 -13 15 -2 32 5 8
12 7 27 -4 19 -15 19 -15 -5 -8 -20 6 -23 5 -12 -6 6 -7 13 -24 13 -39 1 -20
3 -21 6 -5 4 21 53 63 53 45 0 -5 -4 -10 -10 -10 -21 0 -9 -18 15 -22 13 -3
23 -2 21 1 -2 3 22 5 54 4 54 -2 59 0 64 23 4 14 10 23 14 20 5 -3 25 30 46
72 23 46 34 78 27 80 -6 2 -11 10 -11 18 0 12 -4 12 -19 2 -11 -7 -17 -16 -15
-20 3 -4 -9 -8 -26 -8 -18 0 -29 -4 -25 -10 3 -5 -1 -10 -9 -10 -8 0 -18 5
-21 11 -9 14 3 59 16 59 6 0 9 -6 6 -13 -3 -8 3 -14 14 -14 17 -2 18 0 4 14
-9 9 -13 23 -10 34 4 11 2 19 -4 19 -6 0 -11 5 -11 11 0 6 6 9 14 6 9 -4 17 1
19 11 3 12 5 11 6 -5 0 -13 7 -23 15 -23 8 0 13 8 11 18 -2 9 -4 20 -4 23 -1
4 -10 9 -21 12 -12 3 -20 13 -19 24 1 17 2 17 6 0 4 -14 12 -17 35 -13 32 5
51 23 41 40 -3 5 -1 6 5 2 19 -11 14 -34 -8 -41 -11 -3 -20 -13 -20 -21 0 -17
17 -19 23 -1 2 6 8 8 13 4 5 -5 -1 -17 -13 -27 -13 -10 -23 -24 -23 -30 0 -10
3 -10 15 0 12 10 16 9 21 -3 3 -9 12 -18 20 -21 19 -7 18 -3 -6 24 -16 18 -17
25 -8 32 20 12 31 9 24 -7 -3 -8 0 -15 7 -15 16 0 37 66 24 79 -5 5 -1 11 11
15 15 5 29 32 53 104 17 53 34 103 37 110 3 9 -309 12 -1543 12 -1234 0 -1545
-3 -1539 -12z m964 -213 c0 -8 -4 -15 -10 -15 -5 0 -7 7 -4 15 4 8 8 15 10 15
2 0 4 -7 4 -15z m740 5 c0 -5 -5 -10 -11 -10 -5 0 -7 5 -4 10 3 6 8 10 11 10
2 0 4 -4 4 -10z m1185 0 c3 -5 1 -10 -4 -10 -6 0 -11 5 -11 10 0 6 2 10 4 10
3 0 8 -4 11 -10z m-138 -31 c-3 -11 0 -19 6 -20 7 0 4 -4 -6 -8 -17 -6 -16 -8
7 -21 14 -7 26 -17 26 -22 0 -4 -14 1 -31 11 -36 22 -59 18 -59 -10 0 -10 -4
-19 -9 -19 -19 0 5 51 29 64 17 8 24 19 23 35 -2 14 1 20 8 15 6 -3 9 -15 6
-25z m113 21 c0 -5 -4 -10 -10 -10 -5 0 -10 5 -10 10 0 6 5 10 10 10 6 0 10
-4 10 -10z m-1476 -11 c-3 -6 -1 -14 5 -18 8 -5 6 -13 -5 -27 -15 -18 -15 -18
-9 4 4 12 2 22 -3 22 -5 0 -9 7 -9 15 0 8 7 15 14 15 8 0 11 -5 7 -11z m1286
-3 c0 -11 -19 -15 -25 -6 -3 5 1 10 9 10 9 0 16 -2 16 -4z m-55 -16 c3 -6 -1
-7 -9 -4 -18 7 -21 14 -7 14 6 0 13 -4 16 -10z m-10 -21 c12 -19 -5 -23 -22
-6 -16 16 -16 17 -1 17 9 0 20 -5 23 -11z m68 4 c-7 -2 -19 -2 -25 0 -7 3 -2
5 12 5 14 0 19 -2 13 -5z m-93 -23 c0 -5 -2 -10 -4 -10 -2 0 -12 -3 -22 -7
-16 -6 -17 -5 -4 10 17 19 30 22 30 7z m-215 -10 c-3 -5 -10 -10 -16 -10 -5 0
-9 5 -9 10 0 6 7 10 16 10 8 0 12 -4 9 -10z m362 -6 c-3 -3 -12 -4 -19 -1 -8
3 -5 6 6 6 11 1 17 -2 13 -5z m-13 -38 c-3 -9 -12 -16 -20 -16 -11 0 -10 4 3
20 19 22 26 21 17 -4z m51 14 c5 -8 11 -7 21 1 8 6 14 7 14 2 0 -5 -9 -17 -21
-27 -15 -12 -20 -26 -17 -47 5 -30 -6 -40 -15 -15 -3 7 -20 17 -39 21 -28 7
-30 9 -10 12 14 3 22 12 22 24 0 10 5 19 11 19 7 0 9 -10 5 -25 -4 -15 -2 -25
4 -25 6 0 8 5 5 10 -3 6 -2 10 3 10 5 0 9 7 9 15 0 8 -4 15 -9 15 -4 0 -8 5
-8 10 0 13 17 13 25 0z m-1395 -14 c0 -2 -7 -9 -15 -16 -13 -11 -14 -10 -9 4
5 14 24 23 24 12z m1167 -18 c-3 -8 -6 -5 -6 6 -1 11 2 17 5 13 3 -3 4 -12 1
-19z m131 6 c-3 -2 -13 -5 -24 -7 -48 -7 -59 -33 -14 -35 58 -4 65 -5 85 -18
16 -12 17 -14 3 -14 -9 0 -19 4 -22 8 -3 5 -15 8 -28 7 -13 -1 -26 3 -30 9 -6
8 -10 8 -16 -1 -5 -8 -12 -8 -26 2 -17 13 -17 15 -3 30 19 18 59 34 70 28 5
-3 7 -7 5 -9z m-1308 -34 c0 -5 -5 -10 -11 -10 -5 0 -7 5 -4 10 3 6 8 10 11
10 2 0 4 -4 4 -10z m35 -19 c-6 -5 -25 10 -25 20 0 5 6 4 14 -3 8 -7 12 -15
11 -17z m-927 -28 c2 -1 -3 -14 -12 -30 -10 -18 -15 -22 -16 -11 0 9 5 20 10
23 8 5 7 11 -1 21 -17 20 -34 17 -18 -3 11 -15 11 -16 -1 -6 -7 7 -15 23 -17
35 -3 22 -3 22 24 -3 16 -13 29 -25 31 -26z m852 33 c0 -3 -4 -8 -10 -11 -5
-3 -10 -1 -10 4 0 6 5 11 10 11 6 0 10 -2 10 -4z m1066 -20 c10 -21 9 -23 -4
-18 -8 3 -13 1 -9 -4 3 -5 -3 -10 -13 -10 -16 0 -17 3 -6 16 7 8 11 21 9 28
-8 22 12 12 23 -12z m-826 -27 c0 -10 -4 -19 -9 -19 -10 0 -21 36 -14 44 10
10 23 -5 23 -25z m780 21 c0 -5 -5 -10 -11 -10 -5 0 -7 5 -4 10 3 6 8 10 11
10 2 0 4 -4 4 -10z m-1008 -22 c-7 -7 -12 -8 -12 -2 0 14 12 26 19 19 2 -3 -1
-11 -7 -17z m1268 7 c0 -8 -4 -15 -10 -15 -5 0 -10 7 -10 15 0 8 5 15 10 15 6
0 10 -7 10 -15z m37 8 c-4 -3 -1 -13 6 -22 11 -14 10 -14 -5 -2 -21 15 -23 31
-6 31 6 0 8 -3 5 -7z m-77 -10 c-1 -11 -26 -43 -34 -43 -4 0 -4 10 -1 21 5 15
4 19 -4 15 -6 -4 -11 -14 -11 -22 0 -8 -8 -14 -17 -14 -14 0 -15 2 -4 9 7 5
11 13 7 19 -3 6 0 13 6 15 20 8 58 8 58 0z m158 -6 c14 4 14 3 2 -5 -8 -6 -18
-8 -22 -6 -4 3 -8 -2 -8 -11 0 -9 5 -13 11 -9 8 4 8 0 0 -15 -13 -24 -23 -28
-15 -6 4 8 2 15 -4 15 -5 0 -13 7 -16 16 -3 8 -2 13 3 10 5 -3 12 2 16 12 5
11 9 13 12 5 2 -7 12 -9 21 -6z m-304 -22 c3 -8 1 -15 -4 -15 -6 0 -10 7 -10
15 0 8 2 15 4 15 2 0 6 -7 10 -15z m336 -5 c-24 -15 -36 -11 -14 4 10 8 21 12
24 10 2 -3 -2 -9 -10 -14z m-1416 -5 c3 -8 1 -15 -4 -15 -6 0 -10 7 -10 15 0
8 2 15 4 15 2 0 6 -7 10 -15z m1280 8 c-5 -5 -12 -12 -16 -18 -4 -6 -8 -2 -8
8 0 9 7 17 17 17 9 0 12 -3 7 -7z m-374 -49 c0 -3 -7 -1 -15 6 -8 7 -15 17
-15 22 0 5 7 3 15 -6 8 -8 15 -18 15 -22z m120 16 c0 -5 -4 -10 -10 -10 -5 0
-10 5 -10 10 0 6 5 10 10 10 6 0 10 -4 10 -10z m400 0 c0 -5 -2 -10 -4 -10 -3
0 -8 5 -11 10 -3 6 -1 10 4 10 6 0 11 -4 11 -10z m-599 -18 c-7 -2 -18 1 -23
6 -8 8 -4 9 13 5 13 -4 18 -8 10 -11z m604 -12 c-27 -12 -43 -12 -25 0 8 5 22
9 30 9 10 0 8 -3 -5 -9z m-372 -15 c-3 -9 -8 -14 -10 -11 -3 3 -2 9 2 15 9 16
15 13 8 -4z m72 -12 c-2 -10 -4 -21 -4 -24 -1 -9 -31 -7 -31 2 0 7 28 39 35
39 2 0 2 -8 0 -17z m35 7 c0 -5 -5 -10 -11 -10 -5 0 -7 5 -4 10 3 6 8 10 11
10 2 0 4 -4 4 -10z m303 -11 c-6 -6 -17 -8 -24 -3 -9 5 -8 9 7 14 23 9 31 3
17 -11z m-263 1 c-20 -13 -33 -13 -25 0 3 6 14 10 23 10 15 0 15 -2 2 -10z
m-130 -10 c0 -5 -5 -10 -11 -10 -5 0 -7 5 -4 10 3 6 8 10 11 10 2 0 4 -4 4
-10z m110 -21 c0 -5 5 -7 10 -4 6 3 10 2 10 -3 0 -6 -11 -9 -24 -8 -14 0 -22
6 -19 14 6 15 23 16 23 1z m-10 -39 c0 -5 -5 -10 -11 -10 -5 0 -7 5 -4 10 3 6
8 10 11 10 2 0 4 -4 4 -10z"/>
<path d="M3717 1629 c7 -7 15 -10 18 -7 3 3 -2 9 -12 12 -14 6 -15 5 -6 -5z"/>
<path d="M3817 1633 c-3 -5 1 -14 9 -21 12 -10 14 -10 14 2 0 17 -16 30 -23
19z"/>
<path d="M4140 1631 c0 -5 6 -12 13 -14 9 -4 9 -6 0 -6 -14 -1 -6 -31 8 -31 4
0 6 7 2 16 -5 14 -1 15 25 9 18 -3 32 -3 32 2 0 4 -12 9 -27 10 -15 0 -29 6
-31 12 -4 13 -22 15 -22 2z"/>
<path d="M4443 1625 c-8 -9 -9 -16 -3 -20 6 -3 13 1 16 10 9 21 2 26 -13 10z"/>
<path d="M3861 1614 c0 -11 3 -14 6 -6 3 7 2 16 -1 19 -3 4 -6 -2 -5 -13z"/>
<path d="M3755 1610 c-3 -6 1 -7 9 -4 18 7 21 14 7 14 -6 0 -13 -4 -16 -10z"/>
<path d="M4016 1603 c-6 -14 -5 -15 5 -6 7 7 10 15 7 18 -3 3 -9 -2 -12 -12z"/>
<path d="M4100 1609 c0 -5 5 -7 10 -4 6 3 10 8 10 11 0 2 -4 4 -10 4 -5 0 -10
-5 -10 -11z"/>
<path d="M3635 1600 c-4 -6 -11 -8 -16 -5 -5 4 -9 1 -9 -4 0 -6 9 -11 20 -11
11 0 20 7 20 15 0 17 -6 19 -15 5z"/>
<path d="M3714 1594 c3 -9 6 -17 6 -20 0 -2 7 -1 15 2 12 5 12 8 0 20 -18 19
-29 18 -21 -2z"/>
<path d="M3767 1580 c-3 -11 -2 -20 3 -20 12 0 21 28 11 35 -5 2 -11 -4 -14
-15z"/>
<path d="M4088 1583 c7 -3 16 -2 19 1 4 3 -2 6 -13 5 -11 0 -14 -3 -6 -6z"/>
<path d="M4233 1560 c-1 -11 2 -18 8 -15 11 7 12 35 1 35 -4 0 -8 -9 -9 -20z"/>
<path d="M4360 1554 c0 -8 5 -12 10 -9 6 3 10 1 10 -5 0 -8 -11 -9 -32 -5
l-33 6 29 -15 c40 -22 47 -20 44 14 -2 30 -28 43 -28 14z"/>
<path d="M4406 1548 c7 -26 12 -33 18 -27 2 2 7 14 10 27 6 18 4 22 -14 22
-18 0 -20 -4 -14 -22z"/>
<path d="M4085 1530 c-3 -5 -1 -10 4 -10 6 0 11 5 11 10 0 6 -2 10 -4 10 -3 0
-8 -4 -11 -10z"/>
<path d="M4120 1531 c0 -10 19 -25 25 -20 1 2 -3 10 -11 17 -8 7 -14 8 -14 3z"/>
<path d="M2080 1517 c0 -9 5 -17 11 -17 5 0 7 -4 4 -10 -4 -6 5 -10 21 -10 15
0 25 1 23 3 -2 1 -16 13 -31 26 -23 20 -28 22 -28 8z"/>
<path d="M4798 1508 c-3 -16 0 -25 9 -25 15 0 17 16 4 35 -6 10 -10 7 -13 -10z"/>
<path d="M3610 1506 c0 -8 4 -17 9 -21 6 -3 9 4 8 15 -1 23 -17 28 -17 6z"/>
<path d="M4220 1510 c0 -5 5 -10 10 -10 6 0 10 5 10 10 0 6 -4 10 -10 10 -5 0
-10 -4 -10 -10z"/>
<path d="M4835 1510 c-3 -5 -1 -10 4 -10 6 0 11 5 11 10 0 6 -2 10 -4 10 -3 0
-8 -4 -11 -10z"/>
<path d="M3418 1488 c-5 -15 23 -49 34 -42 5 3 6 10 3 15 -3 5 1 6 9 3 20 -8
20 3 1 22 -8 9 -15 11 -15 5 0 -6 -5 -11 -11 -11 -5 0 -7 5 -4 10 3 6 2 10 -4
10 -5 0 -11 -5 -13 -12z"/>
<path d="M4025 1480 c-8 -13 5 -13 25 0 13 8 13 10 -2 10 -9 0 -20 -4 -23 -10z"/>
<path d="M4070 1481 c0 -6 -11 -13 -25 -17 -19 -5 -24 -11 -20 -25 4 -11 2
-19 -4 -19 -6 0 -11 -5 -11 -12 0 -6 8 -4 19 6 25 23 57 13 66 -21 l6 -26 20
22 c11 12 25 19 31 15 7 -4 7 0 1 12 -5 11 -9 31 -8 45 0 14 -5 26 -11 26 -7
0 -10 -6 -7 -13 3 -7 -2 -23 -11 -36 -9 -12 -16 -17 -16 -10 0 6 -11 12 -25
12 -14 0 -25 5 -25 10 0 6 9 10 20 10 21 0 27 15 10 25 -5 3 -10 2 -10 -4z
m70 -61 c0 -5 -4 -10 -10 -10 -5 0 -10 5 -10 10 0 6 5 10 10 10 6 0 10 -4 10
-10z"/>
<path d="M4350 1480 c0 -5 5 -10 10 -10 6 0 10 5 10 10 0 6 -4 10 -10 10 -5 0
-10 -4 -10 -10z"/>
<path d="M3596 1465 c4 -8 11 -15 16 -15 6 0 5 6 -2 15 -7 8 -14 15 -16 15 -2
0 -1 -7 2 -15z"/>
<path d="M3811 1454 c0 -11 3 -14 6 -6 3 7 2 16 -1 19 -3 4 -6 -2 -5 -13z"/>
<path d="M3572 1440 c14 -22 24 -19 15 5 -4 8 -11 15 -17 15 -6 0 -6 -7 2 -20z"/>
<path d="M3606 1431 c-7 -11 0 -80 8 -89 3 -3 7 3 7 14 2 25 2 26 -7 49 -7 20
-7 20 9 0 8 -11 19 -16 23 -12 5 4 3 12 -5 16 -7 5 -12 12 -11 17 2 12 -17 17
-24 5z"/>
<path d="M3990 1430 c0 -5 -7 -10 -15 -10 -8 0 -15 -5 -15 -10 0 -7 6 -7 20 0
18 10 28 30 15 30 -3 0 -5 -4 -5 -10z"/>
<path d="M1602 1384 c-2 -24 -11 -37 -39 -56 -63 -42 -145 -109 -139 -115 2
-3 20 7 39 21 19 14 38 26 44 26 5 0 23 15 40 33 17 17 38 37 47 42 13 7 17
19 13 45 -4 35 -4 35 -5 4z"/>
<path d="M4040 1395 c-10 -12 -10 -15 2 -15 8 0 15 7 15 15 0 8 -1 15 -2 15
-2 0 -8 -7 -15 -15z"/>
<path d="M3642 1368 c-14 -14 -16 -28 -3 -28 9 0 24 30 18 36 -2 2 -9 -2 -15
-8z"/>
<path d="M2569 1349 c-7 -13 -8 -39 -4 -67 6 -43 8 -45 20 -27 8 11 22 29 32
39 18 19 18 20 -9 3 -21 -13 -28 -14 -30 -5 0 7 -2 20 -3 28 -1 8 2 23 7 33
12 24 1 21 -13 -4z"/>
<path d="M3950 1366 c0 -2 7 -9 15 -16 12 -10 15 -10 15 4 0 9 -7 16 -15 16
-8 0 -15 -2 -15 -4z"/>
<path d="M3666 1345 c-3 -8 -1 -15 4 -15 6 0 10 7 10 15 0 8 -2 15 -4 15 -2 0
-6 -7 -10 -15z"/>
<path d="M3694 1325 c-1 -19 2 -35 6 -35 9 0 18 41 12 58 -7 23 -17 12 -18
-23z"/>
<path d="M3226 1313 c-6 -14 -5 -15 5 -6 7 7 10 15 7 18 -3 3 -9 -2 -12 -12z"/>
<path d="M1865 1313 c10 -3 30 -12 43 -21 17 -11 54 -16 135 -18 l112 -2 -95
7 c-52 4 -112 15 -134 24 -21 9 -48 16 -60 16 -19 -1 -20 -2 -1 -6z"/>
<path d="M3331 1304 c0 -11 3 -14 6 -6 3 7 2 16 -1 19 -3 4 -6 -2 -5 -13z"/>
<path d="M3475 1310 c-3 -5 -1 -10 4 -10 6 0 11 5 11 10 0 6 -2 10 -4 10 -3 0
-8 -4 -11 -10z"/>
<path d="M3630 1310 l-45 -7 48 -1 c26 -1 47 3 47 8 0 6 -1 9 -2 8 -2 0 -23
-4 -48 -8z"/>
<path d="M3992 1300 c15 -23 28 -26 28 -6 0 8 -7 17 -16 20 -24 9 -25 8 -12
-14z"/>
<path d="M2250 1300 c-8 -5 -28 -10 -45 -11 l-30 -1 33 -8 c41 -9 72 -2 72 16
0 16 -9 18 -30 4z"/>
<path d="M2406 1295 c4 -8 8 -15 10 -15 2 0 4 7 4 15 0 8 -4 15 -10 15 -5 0
-7 -7 -4 -15z"/>
<path d="M2305 1258 c12 -38 22 -41 27 -9 4 25 1 31 -14 31 -15 0 -18 -5 -13
-22z"/>
<path d="M2420 1261 c0 -5 10 -20 23 -33 12 -13 16 -17 10 -8 -7 9 -13 22 -13
28 0 6 -4 14 -10 17 -5 3 -10 2 -10 -4z"/>
<path d="M3951 1258 c-1 -9 4 -20 9 -23 6 -4 8 -11 5 -16 -10 -15 2 -10 16 8
10 12 10 15 1 9 -8 -5 -15 1 -21 16 -7 16 -10 18 -10 6z"/>
<path d="M4587 1247 c-3 -7 3 -13 14 -13 22 0 25 12 5 19 -8 3 -16 0 -19 -6z"/>
<path d="M4020 1233 c-14 -7 -18 -13 -10 -13 17 0 47 17 40 23 -3 2 -16 -2
-30 -10z"/>
<path d="M4730 1240 c0 -5 5 -10 10 -10 6 0 10 5 10 10 0 6 -4 10 -10 10 -5 0
-10 -4 -10 -10z"/>
<path d="M4520 1228 c0 -4 4 -8 9 -8 6 0 12 4 15 8 3 5 -1 9 -9 9 -8 0 -15 -4
-15 -9z"/>
<path d="M2631 1214 c0 -11 3 -14 6 -6 3 7 2 16 -1 19 -3 4 -6 -2 -5 -13z"/>
<path d="M4650 1220 c0 -5 7 -7 15 -4 8 4 15 8 15 10 0 2 -7 4 -15 4 -8 0 -15
-4 -15 -10z"/>
<path d="M4338 1213 c7 -3 16 -2 19 1 4 3 -2 6 -13 5 -11 0 -14 -3 -6 -6z"/>
<path d="M4392 1208 c-14 -14 -16 -28 -3 -28 9 0 24 30 18 36 -2 2 -9 -2 -15
-8z"/>
<path d="M4590 1209 c0 -5 5 -7 10 -4 6 3 10 8 10 11 0 2 -4 4 -10 4 -5 0 -10
-5 -10 -11z"/>
<path d="M4514 1198 c-3 -4 6 -8 20 -8 14 0 26 4 26 9 0 11 -39 10 -46 -1z"/>
<path d="M4013 1183 c9 -2 25 -2 35 0 9 3 1 5 -18 5 -19 0 -27 -2 -17 -5z"/>
<path d="M2580 1170 c0 -5 7 -10 15 -10 8 0 19 -9 25 -20 6 -11 16 -18 21 -14
6 3 -4 17 -22 30 -37 27 -39 28 -39 14z"/>
<path d="M2601 1105 c0 -31 24 -74 35 -62 4 4 2 12 -3 19 -6 7 -15 27 -21 43
l-10 30 -1 -30z"/>
<path d="M2735 1120 c-3 -6 1 -7 9 -4 18 7 21 14 7 14 -6 0 -13 -4 -16 -10z"/>
<path d="M1369 1114 c-1 -5 -1 -12 0 -16 0 -5 -3 -8 -9 -8 -5 0 -10 -17 -9
-37 l1 -38 9 33 c5 18 14 30 19 27 6 -4 9 3 7 14 -3 22 -16 40 -18 25z"/>
<path d="M1898 1083 c7 -3 16 -2 19 1 4 3 -2 6 -13 5 -11 0 -14 -3 -6 -6z"/>
<path d="M2270 1070 c0 -5 4 -10 9 -10 6 0 13 5 16 10 3 6 -1 10 -9 10 -9 0
-16 -4 -16 -10z"/>
<path d="M1631 1027 c-1 -44 20 -117 34 -117 3 0 0 10 -6 23 -7 12 -16 49 -19
82 l-7 60 -2 -48z"/>
<path d="M2035 1060 c-5 -7 148 -20 252 -20 38 0 88 -9 132 -24 51 -17 73 -21
78 -13 3 7 3 9 -1 6 -4 -4 -35 4 -69 18 -50 20 -84 25 -182 29 -66 2 -139 6
-163 8 -23 2 -44 1 -47 -4z"/>
<path d="M2551 1033 c18 -15 45 -48 61 -72 15 -25 28 -39 28 -32 0 7 5 9 13 5
6 -4 -17 23 -53 60 -35 36 -68 66 -73 66 -5 0 6 -12 24 -27z"/>
<path d="M2500 946 c0 -2 8 -10 18 -17 15 -13 16 -12 3 4 -13 16 -21 21 -21
13z"/>
<path d="M2270 909 c-132 -34 -204 -46 -255 -43 l-50 3 55 -11 c43 -8 68 -7
121 6 37 9 99 16 137 16 65 0 71 -2 75 -22 4 -21 4 -20 6 3 1 26 3 26 54 23
82 -5 100 -12 94 -34 -3 -11 -1 -18 4 -14 16 10 9 -26 -8 -45 -43 -43 -187
-71 -455 -87 -102 -6 -117 -9 -121 -25 -3 -11 -13 -19 -22 -19 -9 0 -13 5 -10
10 10 16 -32 12 -73 -7 -32 -16 -73 -18 -330 -18 -161 0 -284 3 -275 7 14 5
15 7 3 8 -8 1 -23 1 -33 0 -10 -1 -27 6 -38 16 -11 10 -19 12 -19 6 0 -7 -7
-12 -15 -12 -8 0 -15 5 -15 10 0 6 -10 10 -22 11 -22 0 -22 1 -3 8 22 9 -12
14 -198 28 l-108 8 55 -52 54 -53 74 -1 c40 0 96 -5 123 -9 38 -7 23 -8 -64
-6 l-114 4 24 -20 c56 -45 65 -47 204 -58 188 -14 459 -59 710 -119 41 -10 59
-6 36 8 -9 6 -11 18 -6 40 5 25 12 31 33 32 l27 1 -25 8 c-22 6 -23 8 -7 15 9
4 17 13 17 21 0 7 11 16 25 20 24 6 25 7 8 21 -17 13 -17 13 2 5 26 -13 143
-13 151 -1 3 5 69 9 148 8 90 -1 150 2 163 10 12 6 37 11 55 10 27 0 29 -2 13
-8 -20 -9 1 -10 335 -29 85 -5 207 -16 270 -25 63 -8 167 -20 230 -27 254 -26
570 -80 570 -98 0 -4 20 -8 45 -8 76 -2 48 20 -40 32 -16 3 -77 13 -135 24
-143 26 -296 48 -410 60 -98 11 -192 22 -340 40 -47 5 -125 10 -175 10 -49 0
-121 7 -160 15 -38 8 -82 15 -97 15 -14 0 -28 4 -30 10 -2 6 -115 12 -287 15
-157 3 -287 8 -290 11 -14 14 34 22 202 33 214 14 272 23 391 58 86 26 89 26
119 10 21 -13 27 -14 18 -4 -13 16 3 27 41 27 17 0 18 3 8 15 -7 8 -17 12 -22
9 -5 -3 -27 14 -48 38 -45 48 -53 40 -15 -16 27 -40 27 -41 -9 -25 -14 7 -26
21 -28 33 -2 13 -9 20 -19 18 -30 -4 -69 16 -63 33 3 8 1 15 -5 15 -6 0 -11
-4 -11 -10 0 -5 -4 -10 -10 -10 -5 0 -10 7 -10 15 0 8 -7 15 -16 15 -9 0 -12
-5 -8 -12 5 -7 3 -8 -7 -2 -8 5 -23 7 -34 6 -17 -2 -18 -1 -5 8 12 10 11 11
-7 7 -13 -3 -26 -1 -29 4 -8 13 -39 10 -124 -12z m280 -65 c0 -2 -7 -4 -15 -4
-8 0 -15 4 -15 10 0 5 7 7 15 4 8 -4 15 -8 15 -10z m-1501 -148 c-8 -8 -78
-10 -85 -3 -4 4 14 7 41 7 27 0 46 -2 44 -4z m863 -68 c-15 -15 -11 -15 -247
-21 l-180 -6 165 9 c91 5 185 13 210 18 63 14 66 14 52 0z m-539 -5 c-13 -2
-33 -2 -45 0 -13 2 -3 4 22 4 25 0 35 -2 23 -4z m1154 1 c-3 -3 -12 -4 -19 -1
-8 3 -5 6 6 6 11 1 17 -2 13 -5z"/>
<path d="M1973 743 c9 -2 23 -2 30 0 6 3 -1 5 -18 5 -16 0 -22 -2 -12 -5z"/>
<path d="M1165 422 c21 -14 57 -22 120 -27 50 -4 98 -6 108 -5 41 4 139 2 227
-5 52 -4 93 -5 90 -2 -6 6 -126 19 -360 37 -74 6 -153 13 -175 16 l-40 6 30
-20z"/>
<path d="M3863 393 c4 -3 -1 -12 -11 -19 -27 -19 -7 -28 22 -9 32 21 33 35 4
35 -12 0 -18 -3 -15 -7z"/>
<path d="M1860 381 c0 -5 6 -11 13 -14 19 -7 68 4 61 14 -7 12 -74 12 -74 0z"/>
<path d="M1617 350 c8 -9 204 -29 283 -29 69 0 73 1 55 15 -15 11 -39 14 -95
11 -41 -2 -114 -1 -162 2 -47 3 -84 4 -81 1z"/>
<path d="M2351 296 c3 -3 30 -7 60 -9 45 -2 53 -6 51 -20 -3 -20 13 -23 21 -4
3 9 17 12 40 9 34 -4 34 -4 23 -35 -6 -18 -11 -33 -12 -35 -1 -2 -16 4 -33 12
-16 9 -35 16 -41 16 -18 0 -11 -18 10 -25 14 -4 20 -15 20 -35 0 -36 19 -49
36 -24 30 42 34 45 50 30 8 -8 41 -18 74 -22 33 -4 63 -11 66 -15 3 -5 34 -9
70 -9 l64 0 0 38 c0 20 3 47 6 59 6 21 4 21 -127 22 -73 1 -135 4 -138 6 -2 3
80 5 184 5 104 0 185 3 181 7 -3 4 -77 10 -164 14 -86 4 -222 10 -302 14 -80
4 -142 5 -139 1z"/>
<path d="M1440 261 c19 -11 58 -28 85 -37 28 -9 54 -20 60 -25 5 -5 19 -9 31
-9 12 0 27 -7 34 -15 16 -19 196 -76 345 -110 213 -48 314 -58 565 -58 209 0
252 2 388 26 84 15 158 29 163 33 13 8 -20 33 -44 34 -10 0 -29 -7 -42 -16
-23 -15 -35 -15 -143 -1 -64 9 -142 19 -173 22 -56 6 -56 6 -52 -19 4 -19 12
-26 37 -29 27 -3 26 -4 -9 -5 -47 -2 -207 21 -445 62 -32 6 -179 21 -398 42
-139 14 -178 21 -198 36 -13 11 -24 23 -24 27 0 4 35 7 78 5 l77 -3 -55 10
c-128 23 -228 39 -270 44 l-45 6 35 -20z m1317 -217 c-3 -3 -12 -4 -19 -1 -8
3 -5 6 6 6 11 1 17 -2 13 -5z"/>
<path d="M3455 250 c3 -5 -13 -9 -40 -8 -25 0 -49 -2 -52 -6 -4 -3 25 -6 63
-6 38 0 86 -5 108 -9 32 -8 48 -5 90 14 l51 23 -113 1 c-70 1 -111 -3 -107 -9z"/>
<path d="M1818 213 c6 -2 18 -2 25 0 6 3 1 5 -13 5 -14 0 -19 -2 -12 -5z"/>
<path d="M1883 203 c9 -2 25 -2 35 0 9 3 1 5 -18 5 -19 0 -27 -2 -17 -5z"/>
<path d="M3210 110 c8 -5 26 -10 40 -10 20 0 22 2 10 10 -8 5 -26 10 -40 10
-20 0 -22 -2 -10 -10z"/>
</g>
</svg>
